<mxfile host="app.diagrams.net" modified="2024-04-19T10:00:46.636Z" agent="Mozilla/5.0 (Windows NT 10.0; Win64; x64) AppleWebKit/537.36 (KHTML, like Gecko) Chrome/123.0.0.0 Safari/537.36" etag="NVC8Ka68_GRlFaZ5e_N6" version="24.2.3" type="google">
  <diagram name="Page-1" id="5Vsmu3mGZnHk90yHdgNa">
    <mxGraphModel grid="1" page="1" gridSize="10" guides="1" tooltips="1" connect="1" arrows="1" fold="1" pageScale="1" pageWidth="2336" pageHeight="1654" math="0" shadow="0">
      <root>
        <mxCell id="0" />
        <mxCell id="1" parent="0" />
        <mxCell id="rgceRy845r_XPvcVsGcQ-30" value="Windows or Linux server" style="swimlane;whiteSpace=wrap;html=1;rotation=0;" vertex="1" parent="1">
          <mxGeometry x="310" y="90" width="560" height="610" as="geometry" />
        </mxCell>
        <mxCell id="rgceRy845r_XPvcVsGcQ-19" value="" style="group" connectable="0" vertex="1" parent="rgceRy845r_XPvcVsGcQ-30">
          <mxGeometry x="-300" y="81.25" width="250" height="160" as="geometry" />
        </mxCell>
        <mxCell id="rgceRy845r_XPvcVsGcQ-10" value="" style="ellipse;shape=cloud;whiteSpace=wrap;html=1;" vertex="1" parent="rgceRy845r_XPvcVsGcQ-19">
          <mxGeometry width="250" height="160" as="geometry" />
        </mxCell>
        <mxCell id="rgceRy845r_XPvcVsGcQ-4" value="" style="shape=image;verticalLabelPosition=bottom;labelBackgroundColor=default;verticalAlign=top;aspect=fixed;imageAspect=0;image=data:image/png,iVBORw0KGgoAAAANSUhEUgAAASAAAABECAYAAAAhkeh4AAAb0ElEQVR4Ae1d978UtRbHrth77/gU7IKKWBAQK+JTnyAIghQLqGABaQoqIipWQFBQqkqRJiiK0hQBpVx653Lv1nvF/yHv853dM5vNnWROdmcpn09+2E82k5nTcnJyctJqVVbtFfjFvPQf77/LO3k4fUC7cO2h1PahFhTN/ZwMnA44HdgfOuAZoJzHQz2/S1EZTi5OD5welLYd1IpVZy2/SzOeoJODkwNGBU4P9oke1DKP8TLWL+cJqGNiV+7kJ/eQTj/y9cG1j3x51NQPFwNyMTAXA3Q6sN90wMWAXKzHxbqyBijn6bvY176KfbkYkBvr75OxvoupuFirN8umtDfnATkPyHlAzgPyOqH94QHmYkBkmWg87PL542InDycPahtInT5Eog85AyR5Ap6r5PK+Z+DkkR8TcfJw8oAOkMdUjD5IMaB/MxaNLHt1NPlPPx8latWqFfnv8MMPFxdfcom4484movuLPcXYCZPE32Ubcj1TRPT7PR0DXmX6H9HioYcK4nXL7oqSyJ/o7/lKr4LoMtXdRRdfLK657jrRuk1b8ebgIWL2j/Mjk3/rtk+w6W102+0iFlI/l1x6KRuejuejjjpKXH5FXfHAgy1Fr779xIRvp4gN23dk682uvcRTaZHudZ+oalPngPmlO18vUj2bidS7XURy8jARXzJPxGKVBfEXVh9UXvIYUKNbbyu64nUKoT6HUWrR8iEx/7fFoiJV7VtostSlTleWrRdHHHFkQfzOmDOvpPTedfc9BdGlyjgsf+qpp4p3P/hQlG3aWjA/5ckqcfLJp7DpRQck98hB9XzSSSez4YXxKJcfcsgh4rY7Gotvp30vNu8sD6VDpjO2a4dIv3jnAWOAgoxhun09kRzdX8TX/11wfQbVB8lB8oCyUXoa5/qekBK9tygvT6RFqSpeVoKg/w0bNRIbt++UeuTo+fNcz6ycdieS4qyzzy5Yyd8a8m6mp7GQr4yfPB3vmRyjyNJXDG1B8uU8Gz12nNiTqsr2oHz5/1W23kqO02bNydVzgPx2x5NW8Di8Bb0DD+njz0aInZWJHD1qO1Lp27hGVLWve0AbITJMqcEdRHxPxsj6+hbGX0i5MQbkK3NWaGTJ1OeUV8u37q4QRx999D6pfJ1CzP15gd+wVfqIbkqLKZ/47dSi+Hy0VWu/hyF61LRQ+hb98WdRtAXJlvMM3sGdTZtay//7OXPZ9B555JGetwtZ6eTzWr/+bHgcvsLeOe3008XiZct9vqkedfQlFkw/KAyQZ4ja1xWJn7+rwZtJ/ib+JQ/IbgxLY7icJaz5/YrVawWUMKzCSlleu3Zt8fXEyaExAg4/niB9i57jd/3W7eK4444ris9L69TJVGoA/AzeHD7b/KC33ymKtmLr54b6Dazk//a7Q9n0Xnf9DVm56eVzwYUXsuEVyyt9f9hhh4m27dpLHqCevliySqTeePzgMUJt6ojkiN4inkxLnp6BP88jDy4P9IDIUlOqWjB6TqmuvP8bg/Z5xZMCyCmGH2s3bvF7SKKbUh393PJuL/SIhM9V6zd5jYnwUlosffc90CIS+mSZ2v5HbI74UVOVP5t41ZMdO/m9sQoX+R0VcXH4EUfsN/4bN2kitpVnArlB9BHv8Z3bRFW7Kw4qI5Qa3FHEkimj/Ik/pEH8Sx6QEuvxe+LCn0cx82Cr6Lr3mzRrlu0pC+fHE6YilwVLfo9MwT/7fLTUo0RHZ9169fZbA6T6wATBgsW/h/JXnkwLeK30XVj64afDjfW6dtMWceihh7LhheErpLxZ87vFzljCSCdGEqlPXzqoDBCGZKlh3UP5Cmo3NHLK84Bka1Xs/807du/XSlcVBb0ghkrF8qV+37TZXZHx+cSTHSKnD/Qed/zxkdGoytUmjxmy8niux1Rlifwvi5Za0brw92VGmSEGaENjqd5t16GjkU6SRVXHaw46I5T85kMWb8SjnNbyYh/o1f11FP9meqki84uWLT8gKl5WqEcea5XhMyJ+v/hqXKQ83njzzZHSh4r+fs68SGmU5VnI/2V/rzHq1wcff8qmF4Y1TH+ffq4bG14h/Nh8M2rMV6H0pl9vddAZIMzixbduyBgh2A2L9pXnAdEYjSxUMfnxk79lVzyGanuSVQLrP5DSLyiPHq1Xn35WbjopCVz7XbGkb62L4Q8ywkJIgh1FitkTkj3SYunD94iRcGnDUIVkr6sPeJGY8Xus9eNsuDL+N9/JLTcI4s+G3nsfaBEqL5vlBzc0uFFM+X6m//tO+j95yjTR89VeRU02nH32OaH0Jv5cYGWAEst/EzEsdUhVicpsGnUe64BoKl6bdq4vKpPZJReaWfOg+pZiQGqUWo1B2JXD5ZQVz/T/3vsfyPQMXrRcxUv5fPyIFWB2C7EFE2y5DIsEN+3YlVECJZaT8wAJn5rm4+/U9Wk2XpmGsP+//f5HJPTRGNsmDodZG/quZprPP8oRXG3b/kkrOdzUsKGRv2uvu54N752h70v01qQPiyHD5C2XD/vkMwlecP1XpKu9Ffet2rSxgk14ur3Yw8g/5Jrudnt4g8+uoE5skzwPi/bDqV+vMwQ9LzYLp6ftZSK+9MdQ+al48zwgufct9j96cxJ6WPpyr9cylZK1nFzc2PrwTLfubDyYGoVScuHr3oMXdcwxx7Dw2q6MfqV3n6LpI7qxGvyUU/griuU1UwSDk9ZvcCNLFtCDE088Scsf5GozYzV15mwtLND9w/xf2HSBtlXrNhrhqbJABxim22o5FuaGxcGSQ7uGN/isAYonch69Sl8UeXhYWq9H3UbSub6IxeJWMjTHgGgsR6lnYaUxHj2nNFu+Ym2ZVcVg4VnOAwmH71nR7FhzVzzFXuzoGaDN2zJWWh6rKvTL8NUYQ0X6H3Hr7Xew+Wt+z73CZlq5wU2IA2VjcmrKlD99Dy+R26CxitdT2CC5EB0a/EM//IgtDzRIok9Nv5k63QoOVkyr9SPnbeg699zzCuJ/6qw5AnqlGhpdHuviflzwWz7dinyTM0axGn26/6P5cDT148u5gPLUG21YtJCRSiz7RVu/QfpVEg8Im/R0FaA+h4eApfLFWGtuLx+FBzTzhx/ZvIEubAcZM24C+xu/IUBZivyNHvs1G++ZZ51VMD7bmSYdX12ffY5NLzwJHRx6fn8L/vondBT0nW3ap/8AqwW3tze+04grvvpPVqNPzPnaCMeWj6D3052uZ9FCBggbWYPg6J5lPCCyjBGlqBDV0OjyXo9fJN7jTziBhQ/xonU0FY+e3hIvhggwEDpe1OcvvdrL66GwN4gbq8LQzpYu3fuIrak06fJXXXNNwXg/GfE5Gw92z+votfEsO3V9RgsH8Pekqr3hno5f9TlOC9DRxXl+7nnns2UA3DuwX8ygf1VPXG5u+Ii5VFRkPCADnLyRheV7iZljzDSoQ7BsPrZ7F5uuknhATZo2Y1fGU126ZioCwingZ7NuBMMM7E8rBA++GfLeB2y+MENGeLApF7EPVel1+bDYBsE1pZjF0sEPet7j5Vd8ek1wg8qwvCEIZtAzeeWyCuu88/mNGJ6o+r2cX/znCjZNoPO76TOM8GTYQf8RuwviV/fMGz4a9D39QmNj408/da2IS6uQg2gq6lmqWth6P+QFJRbNYcvSjwHFlbF/Mfljjz2WXRmffznWGzMWgg8zEhdedBEbF9aNeFOB1XuFLb4tO8vZsSYo3bjJ3/pjYVzxe55FD/nI/x6zpk/lp2zzNrZcQO+vS7KrlLN6oMIz5U848UQ2rq8nfRNY35hRs9k3uGJNmS9fxDhU+kaM/pJNE/j3OiaKxQTAU+GreXjHOmMT9HzxshVG+tMDzbGX9DOIFf7jx4BUeorOl+8SoV6YxgNKjR9Soz509ETuAeEsniCB656FrWQ1WfHefftbLbN/6dXebMus4n3c4oCspnc193doExybZQkYUsKDoW8LSWFQdDJXn5tmpsJw33RzQzYe4MUG5SCY2Iai0mXKh3my8KxN38tlV159dSBNQXSanuGANhmu6b8XiDZ4QKk3nzB6QKmPstP5BhgmWsPKkqMYa380Bij9Vnu2PH0PyDhWpJ4BzAbFTqTyt4bwdzJjB/nuRCrXEzDgAz+8EZvpdygChl9bdu0JpT+Iv9k/zbc6aGzp8r/y8VTvFTN+4K9IRrxo047dmUqUPVOmfKBcAwa9xW4MWHsTxLenpBr88EBwGqWpkallMHQYjvpwiZ/qvaJp8+ZsWPB68+iV9I+eYwe+il+XR/CbvgtMA+DnvZcttzHGc+b/kpNDAPwwA4T4TGxjmYhtWidim7Ip5dV0U5mIb9kgYumsx0Ryp1TFv6dcpNsVfkZR+tmG+fJU4RPeqr0icg/IJh6A4y3HTfqG/cNCMeyXsomnkNJ5R0KA8QJ+OPKB4ISl2Bmvw8FdO4ShiM5T0MFWn9uszal/443sOnj3/WHioYcfYcuD5AWeMCun0kn58y+4gA0Tx4vQd0Epgv5cWYM+E11B8HXPcPYR8RuWzvnpZyMPYQaI4i3cNN399syKaYb+Y0EhF67uPZ2M1Oe1aGxGqWfZpTEwPac0rLzelVeyKyGskqIqx1S/f16xEuMgvihV+UOMiksHPDrvbGeN/C77z+VsWO99+HFerERHHz2nFPRv21PJxsPlrdj3zj7nnJynGyAf7kwmDBlWsxO/agr+bQ40A18L/1jmw1PrPwi+HHOSy20M0ILFS431G7UBSs6baJQ/8QH+UyHxJ53RkZ8TPDVV5RupB4S4he3K32IVm/N9y/8+bOxtVKtMeQQWuQFWNIxJ300z4rGZHcRZ2kSHbfrzwiUHlAHCHrPps3/Q8rNuy3Y2vTBUWOFtkglifRy9wDugLWxlsgmXXGazjQSnVMrfqv9Tg8xBaLmxh/1PP32TEZeMO75xbdHeD+iRYZr++zEgslRkodSUU/7NNLuVrFwlKea9Opf9R+C8Zg79/orR7JjVZic18Kjfy3ng7z+Qf0AbGsaOynhmLC15DGq9UF7mb8QXdjNAxciX8+39Dz5olH9viyNTsQ4Ls4rEN6Uy/zaxqTubNsvzRAiemsrw5Xql91COxZwceeCdv+gGF8UjJ3hh0/BhRkcuT73/nFH+4If4S079LBoDJMcOJfjEH6WRekAdO3VhVwC3oop5Dwqxcu06tjWWLfWyv1azeUHQ2As8h4yvbWamwDfWssg0cf8jTlaM3KL89uaGt2QOaTfIBrvEuTjvvve+UJnYHME6dNhHofA4cscpAfCCuXzgvCwT3Kp2IQsRNTNQsuGh//ENq424ZDpSPRgbTxm4ZZim/9kY0L++BcxYQsqrKVlK9Xkmb+OCciuq0PfOOPNMsWLtuixfRK+ZfuoJcAzILY1uZStTqzZt2fKzuSVk8tTpBdEf9TEhhdYBZLhh2w7PW6EeVtUv2/U/XsC4mupTTfcKNGzuqnPw5Q2FfHg8/UDvrfLRd8AbbH3BESHq97J8EhtWR+KFwAClXn/MKH+ZjrjlUSBk4IJSGW5OXjXlG6kHhEZfqLJG9R32e/33kUe9s4BNltdUNnb8RDYf2PVvs8Me+4C4vD7X/QV2z0X84OxrLvxSvod1UziPmejSpVgRzPUcYFi8K28M3pTtAkTIS0ebzXMbo/9st+eNOBNzx0dmgBKz9TOPKn84XjXImFg/69rAyJ+MVxsDIotMY7WwPAK2NruCo1Z+xEzggWEjLHky8lg9jH4q314Rt1pdjXVPNvi6PMPfcHlF3bp+rIPoC6sPrMCOWrY28LAYb8z4Cb5HGEbvlJmz2fRiaBUG7/4HW7Lh4cooeLs29ReEf9X6jexTB6Cnf65aY5RPcvirkRgCbKXADaws/pJpgWC1tbEJGI6lX+ev5I/MA/pk+Eh2xdsotOldLC7EOcO49cE78NzQM8pW1/T/+R492XxAgdHj2vzaPNGODR+8e0MYC76iuqHDJHe1DHdzYTMm1giZZBtUZiMPbFYNgiE/s9magyuW5W8L+Y+FldBBVSa6PGbxwk5/SPV7OBJDkBz7Npu/xA8TIsEJA5b6ciAbrxIDqjm2zfS84c9vszgjR1c5Ns+haDgLyJuSDRiTc+mW39u2J2a138uG3kLfxbGg6HVlOk15mxmgQmnCd+jJcbrhx8NHiq3llQKHw5no0tFvc2D+8z1eCpUDdz0ReJg0ZVooPB3d9NxmnRhwNm7SNFROUd2UGi9byeYv3btFZAYo8ev3bLyReEC2u737Dnjd2/yH/TzyDwFE7p3giBvM/3UR29Jyejfc4VRMoyzFtwMGvmnFo01v/NWESXnyl+si7D9HnmHv2F7B7B1cZ/AGV6/fxI4nwWsL80TC6MdJDNwD36AbCFF4m2gNPMRnjY3EEKT6PZLZemHA5fMXi4l0hNdDx3dsY+us4gFRlFpNqQdWn2fyWP2L4RC3AZZt2Za1kAQvB9/mbBl4Qfk9L8FT0xz8TM9VsxzHdx6Iiyi9YYLvAal0Uz7DH64D5tYB3luyXO0hCZ6ahssvWK4EJ/h7m/1x2FqBEx6D8WTgo2Pj8g9DjXvryZMJhqunH4s9Tz/jDDY+0HX1tdca6UesJt27pW+A0gHxFW6MJrl0nhT7CZY/xYZSo/r6OLnwde+l3nlKwquXH8lbOpRe2SeFxXiwnmpKFlV6/sfKVeyeBxUfCJfgVe0V3Nk0zIr456pI34fBV8vhwdncnsBV8ijeO+ecc/PlFSB/4gc3TnBxwth6M0okN0oN8D08EZbbnK+EvW1h+G1morBliOSWlzL4g+d46mmnsWWNOoH3g5s1fB5I3lKK832qOlxdvDHANTkVe3j8JZOiqmMEOLPGMvFHdo+bxJdJvp4HBGsk9wS2+V59+rIro269Kz1cJnw2V77gXVt61fdtvC5uA4/yPbjtJnkRPzY7yuVYBH1PMZx9lbeht2PnLn7sJIg+7wpmixtSXujxkhEecKjywGmaXZ/tZrXOiPTgnvvurwFPhZ8a0at444Mg8Dg6jyfTroPk5fO3dqWoanNZJHirOtcX8XjCqj1GEgOyOQcFh235vQD1NkqKVaU2Y+tido4fKOtmSFGDUlzWFyYzlNtsdvUOglPkzsER1TvYN2gzbMcsqwk34j8IjAfJL+gZ4jcmeFSGfWJYTd/9xZ5W8GWcOKAvbEU+jleNJPjcvq6IVcZYvOF4jnTIuUO6oVaN53Qtj6VOaWJA5BHpxnC5ctsrmPNXsurh39X8brYyDR76ftZD0MPLWPya5a0tDhqTlWpf/n/40f+x+OMeQYEAvme0/T06ufr0e8a8PUrRl9tumEV8i2IW5DnI+Z8WLGTrCyY6MHuKGFAmrc7L4/bWT0eOEg+05K8pMunDVxMnh9Zfcko0e7DSPZp5xken73n1u2NrNJ4Phl9dG4jKtC6mptefmjEg3dhN8xxHGZiEr5btohswNPAo5mRzswYa3tby7FnPIXAJPtIZc+YV3KupfJUyj/OIZLq93lnh0yagC09Bf0GjJvan4AujJ6zc5gpmnP/kbUBF76qhw2bjcCnrSoX9+ptvZZeK6OUa37ZFRLX3K7EyOzOskZMsv8TPU6IxQB2uFPE9dICens8gvS06BoSAnCp0Xf7SOnX88aFsifFfzaNnshlSDB/1RegYm3pOwmdzah6CwThALaqfTcAU+8dU+ah5xEh0clef49wiefaQ5KHKp5T5Dp06s+nFTKDKr5o/8ST+of+qPEqVb9/xKVGeSPk6r5NnVLNQ6efv8HGp8gnK4/0aQ6kCZt6S00eF1k8QfsgjFwMii0ljOGbeZiUrVizT2Nq3xAZ8Nr0kpjh92HJPqYE/5H3+DRcwAGs2braCH8YfApo2ir9omXJ+jFQ/MCY2Jwpin1YYfaUuR31x+fdWWEv85vWkVXu9G025sPbFe/Aw0SF4i2Q1+kfyTSyeG4kRgCFJjuqX01GDvCC/+N+LI8Gb+rxvBmcIPuLXb6PZ95UYUL4nQhbblJ5mMR2Jc19kS2iCi/fWbNxitTIZt1Ry4GPdks0tFZ+MzLfwYXRzymE0ateuzW6Evfv28z08FT7uwLLZZb9gye8sOal4osrvtLyCGcNLU73O+nE+W46lNkBY2T3w7cFGen05VlSIdI8mkRiCqievEvHdO3l4cerhmIFF402NfI2NT1d/RcWAlq9aa1Xxs+b+lOt5yWKGpDaHz+MKZN/SGuC2bf8km25sgMRGWw7cvJ7ZgJ/ew659boPQrlup3uut5+EeQYF4GeHfXynWw3D5xntrNmw2yh/H19rAK9W7CBnMX7iYLd/U0C5FGwEaQqWGdGbjxXoj3CtG3xaSpkZkb5hh6LlJz/JiQLBSNr/xk79jVzzcUhvY9C4WOXIVBovrNm3PnBdM36sppvi507+gGdO7Koyo8lNmzGLzRmfIBOG2adCIZQXB2JfPbDoVnCUdRluLlg+x5cjVJZv3sCkZ1wqF0SmXY61OIQ1f901i0Ww2/tSccYXj7nCVSPy1iI1L5jnof1ExoF59+rErvsZ92GQ5Q8bIGKrYHHSGKes8iyvBx5jcJviL0/e8YC1gMOn1cDPfx14krjHE3iUftgL/tjsas+vBvx2kBPzo6FPrw+YK5s5P0xXM2dkVqT4JH9f7szEqnHcxO4eTELbviVnpR3zB9IIv/QsyQAgmx6qUc7IN9Zsa1LYgA5Qa1k3EKiu17YvqQ61vUz7PA/LHpgGzUrBeajnO0+VUFN55uVfvGt8TPLKMlFdT3CLJPbTqlFNOrYGH4CNWAK+GQzO2jCBWQd8G8U900juUV1NdOWI3NjG06bPnevTI8HfHU1Yrc3Fyn/w90VYK/ggP4aC8zT3qM7PxHx19uF2CU59RvQOP7NU+fQUWMuJOO+JNR59anvh7aaTGBwYpOX1kDb2Q6SEaPPnjzq/29awMUGr0AJHYvK6G3lB95sEPsBOmcikG9G++ZSML6qc1y22uYB4zfqI1fLKcWI3K3SUPRRs89L1cj5SlH5cS2tCLQCLhz6Q1+Y+iHIfZcxvHo61a1+Br9YZN7O+BZ8XaMoUvWrdRGv58zxGKWbVXbN5pd2Rqjt5g+j76bLgV/1xZY3V/w1saiccef1xgkyuulMY54fr1SMH0yfx7626KuPAvyPvBs/jWDZ5xyNdHqldKM/SlvnzDbHyebSjgISW/HiwSC2dLe8rC+ePgz8kjQ1eeB0SWyqV2sTAnLycvpwOF6YDkAZGldKnZkjv5OPlIMUF/hOD0ohC9cB6Q5cyf6+kK6+mc3JzcgnTAP5QeAaWMBQtIYeVduZOPN/vm9KNGO3Hto2D74Dwg5wHlzeQE9VLumfNeSqUDLgbkxvCaWTEX0ygkpqHO8ri8WY+cB+Q8IOcBOR3Ybzrgx4DgYvljW3VMSwdXUQzAleePeZ18MgvhnH5k9MK1D3b7cB6Q6/32W+9XqriCg3vwxKykGBB5QDRmc/n8GICTh5OHvP7H6UMU+uA8IOcBOQ/I6cB+0wHPACFS78WAXOrkgFig0wOnB/tID5wH5Hq//db7uVjNwROrKVVd/R+JJNS0qJo+ZAAAAABJRU5ErkJggg==;" vertex="1" parent="rgceRy845r_XPvcVsGcQ-19">
          <mxGeometry x="61.47" y="65" width="127.06" height="30" as="geometry" />
        </mxCell>
        <mxCell id="rgceRy845r_XPvcVsGcQ-18" value="" style="group" connectable="0" vertex="1" parent="rgceRy845r_XPvcVsGcQ-30">
          <mxGeometry x="-290" y="346.25" width="250" height="170" as="geometry" />
        </mxCell>
        <mxCell id="rgceRy845r_XPvcVsGcQ-11" value="" style="ellipse;shape=cloud;whiteSpace=wrap;html=1;" vertex="1" parent="rgceRy845r_XPvcVsGcQ-18">
          <mxGeometry width="250" height="170" as="geometry" />
        </mxCell>
        <mxCell id="rgceRy845r_XPvcVsGcQ-5" value="" style="shape=image;verticalLabelPosition=bottom;labelBackgroundColor=default;verticalAlign=top;aspect=fixed;imageAspect=0;image=data:image/png,iVBORw0KGgoAAAANSUhEUgAAATYAAAA+CAYAAAChmDdwAAATd0lEQVR4Ae2dhZ8kxRXH+asSkpAQF5KQhBDijhzu7g6Hy+FywKEHHO4Q7A5318PdWZnd2d3K5zu7v+s3fdUys92zu33vfT531dNdVV3y+lfPqna9b2w+FPyfj4HzgPNAk3hgvSZ1xvviH6fzgPMAPODA5hKrS+zOA43jAQc2Z+rGMbVLbS61ObA5sDmwOQ80jgcc2JypG8fULrG5xObA5sDmwOY80DgecGBzpm4cU7vE5hKbA5sDmwOb80DjeMCBzZm6cUztEptLbA5sDmwObM4DjeMBBzZn6sYxtUtsLrE5sDmwObA5DzSOBxzYnKkbx9QusbnENhBg2+Ko0XDhzeNh5TMT4Zp72+HAc1phg6198P0DdB5wHqiHB2oFtr8ePBJeeGMyxOizr6bCoUtb4Ztb1NMxZxgfV+eBdZcHagG2n+403JHMJqdikNZ9D+D7x6Ejrg65Suw84DxQGQ9UCmzrbzkUjrt0LHw1XALRDL5NTYVw/cp2ABB9lV13V1mfe5/7qnigMmDb+tjR8Mb7cbUTDHvzg8lw9nXj4a7H2gbSui9HWlPh5OVjDm6+cjsPOA/MigdmDWy/2n043PloNlgNj06Fk64YC9/aMlmNdj55NHz4WbZU99aHk2HR4tFZdawq5Pd6knnzsfCxWCg80Dew4dU869qxbpEr9eu2h9vhF7vG1csNtx0KNz2QDYhUde+TE2HjPePlF8oAezsdDJwHBs8DfQHbomNGw0efZ0tcr74zGQjxyJpQQPHMa8ZCazyFhBk/T19RjXr6u72HwyHnt8L9T02Ex16a/vfgsxPh6GVj4cc7ZgPot7caCvSZf7/fZ24cHX/Yb2RNG7BlZo1t3v0/HpDUQV9YXPLy9/Ps34dPv+Ofhw1mnOClzY8cDctuGV8zp8ztjavaYfsTRsP67nVfa44ZM/Ez6V8OGsxc9cNP/ZbpGdj2PbOVAT8hfD0yFRZfnA9CB5zdygXFrMqR7vrtJGD07OvZ9j/eOTEZOip1bJJxaoiW/2+873b0237KXX9/It1uuG02COe9445Hkjroz58PrJ6hZWd95e3J2sfp2EvGwmi+0tAxebCIfm+b6kE8b6zn87Pf7pXwM3zw0HMTtc/VoMejJ2BjNc6iFfe0w09yvJrEtD35ykRW8fDOR1Nhu+NGw35ntcLnX8elwTOvzQfN2OD954iRtZgfJwVS5YtvTq7lwUWK/O+R3R+8A1t5UBgUsF17XzdI41n/+POp8Mxrkx1eYqGy9MgLE+E7i8r3I8ZLTblXBtg22Xuk4+zD4ff3Q7q/h4UwDj0BGzavND2/ejLkqR3Y2AjlyCKA5NQruwHrh9sPB4AyTUiE3+1hxwLBv0gOIsBsp5PWVpEBv8dfSvr26ZdTXaqpA1t5QBgEsLEAigC05XeNr2XLRd1CorOhR5fcNjfS9nwDgjLAtsMJyRgffkFrwUl0PQHbx190S1KX3p7PKAxOnqrw3idT4Ze7ZatV2xoGFiP/7eDyq8eupySTA6gBmFlMxmr+9KsJCPJRKG9TgG0QNrZBANujLySL0FEX5X90eNcVKD42HmqxK4pPFkpaxsa2TgGbwEVpkY3mhMvzDSBPvVqs27/9UQI2vJdQkbIMdMaK5P2EnBSVw5AqeuDZpG1NAbai/lfxfBDAhuQOjbVDVxhRVvvvfjwBwl164J+s+taF++sUsE12Y0zAbpY3yYBJHiEh5ZXnGbY3S0hhRWX0/JzrErcrG+91PyvF+4k0gFeNUBXl6wK2u/KlVOL6rMdpg0VDHTVJ9362c7bUqPeRR/k3mgmXsTYlOQ+wfZx4+Vi47r52p93Ykdj58f3t4u8gllD15nl3N9t/JFyU8jJeced4wDOrNmKMpy7y6h6pgO3lt5K55SNhkWFMGduVT08EnFD9eiwBNIj9xvbdWdf7nNFa4zHlOpYPs8V2x492Yi5X3NsOLGwc2AAP089Ymdg9xuiIC1qd8ePQB/qMbXi3U/FCx+cF84rmBTUxVq+9x9wpPzyrZ/Cp7ovPqI+oAmxl/MNOTn4iBJQXCY57/zosqfek5cm3i8dZeUnJR37rqVcdaksste/M4tFYuX7u9aSKLjRgO2xp4sG96u4EqHodqLLAtuXRo102Hex2ABthB6LL7sgHRtq27NYEkCWhWmCDKWC2LMKudErKbkm9OHdEV0a8u6jqq55JpBvlVYpBnsWCcBMWCuiWB7vH1QIb9RFOk0UsWv1IUHoH9WLk7nU+0/lR0V97N7VqpxrNgvfrPbJB50c7DHd5rlPFOz+xJwPwaUAHqETn31jMH/CyCN5Uf3ZfkvAZTjh+p50ox8yYWC64OeEfAIc6Xi8YA72TfOQ/5/qkDhYqtSMrfezFhBc2yjFBZZXv5X6jgQ3pSYSdpczgxwavC9gigEAZ6m4n89ZZqbWaAgQyYuOYyDvRhGfkgfDeqg4LbAILvIC3P9LuHAmFdPHc6u6PM21/ygM24vjsx017kVy00t/8YHtN3CGA/fDz053lvh0zgQ7SFFIbhH3zplXtsPSm8U5QtpXCWSx79bqxOIg4ROHnuyQft21LmWscX1JtqfPtDycDfeq0dVW7a0zIF5OofrPncEd6VJvo0w0rp8eOBYRwCtn5yHP5nd3gVQewpR0naluVwIYpSnTPE4npJjbuzBGOHojoiFieKu81GtgYKBjLEja7824Y7wQQlxGfqaMI2FA1LMXCUmw7tjk2W7XZanGy6gJmmmzUTUsEoMYCbAFYMdAXX091xW/lARsqogjbZyx0h4UivapnSWyqC5UmLaGgEluJARVa/SyT4mkfmrGz8R5A476nJsJB57Z6kuCoR6CGZHPguXH1eP+zW2uAKR3zxUJEZIAIlT3mpEJlX232Uu94YsIDdQCbxoW4S8aFvdyokXLW2fGXxGbHvqyNTTZwFvUsVZt6MZmIimJdbTv6vW48sPERXW1Edw0uKQDA5nwCV7FNxSaYgc0CNqQpbCii8Xa2VMhODBGSUNaEWQDEK6x8NkAXb3Le7gOkI5FUWerJAjZCYERIVzHAVDuw+VnveB6wpaU51UFK+9/9OLGf5u38sOV0zVFXzF2M8MQjFaCu77FktGMOUDmbovaJrBfc5tG1BQLZqXiGKi1Kj4XKKkUyFRFvp/t1AZttp96l1PYnxvdlgQ37nYhdPao/nUqbQJpFbU8/r/p344FNA4Yd5daH2mukGU2GTQE6VlzAUOVIY8DGqmwDjlHd8hiJerTxn7wxYLIqK6qcVVktsGE7tO1LX1ugsra2LGCzMYMyDKfrtL/ZPSJiTO0zqaI8t84Gm0fXSM6ivC14yp9OmadDzmsFgD6PAGKklXR5xhhC9U8/S/9G0hHZMCedVsMHK0dPuqz9bXfA/GAm/KgOYGNxs+9NX1cFbNgdRWlpVu/EDirChqv7dabrDLBpEFktMOYvuWraSxfb88rgW3CzgEAw6MZ7DHdJC9iMYque3qnUMpOVpPTcrpJpJ4NVRYsAlLaIcESoftsPJEPdf2nGFgbw6l5eikQnSkspAjZUEwvMsfpQkURIVrE8Ze7xnj8dMNJRJS++bTyg2qaN5gCPfccmxmBP4Ln1+mVda0cMarvaxek1ELY+3ctLN9038Txqm1dVwEb/RMdflh/eZHkxxruWF4sCdIukMRt2xZznjU9Vz9Y5YIsNHEABYCmMAOawjGElNgznYnAxEUxdxl7HPlRRTE3D4CxKg5eV2IokAwy1ImuozgK2Dz7t7eNkDHFcQFnAhpoZG2t7b8/TEmDr17Fj67PX2HvwDKLyiZCUpfIyvv0SKjDvIkxDhBPHvr+X66qALe0VzWtDlcBm41Vj9jPZ4aYDpOtXQ+m3A5s50M+ueKg3YgwLbGJkUmtwT3/gKptOZXxnki0YYq/DCwrFJCcLbHk2MN7XK7CpTfpg022O/f5yaLqtWaqojWOLledencCmdyJ5y4vM2GJL5Rnb6PolJHTqADxFszmkwUqPqOdqe1aKjVYEbyqf5V8cHrofS6sEtjyPp13MsWXH2lLHvcYCm90PRwxS2cF739hrkHAolwY2nAR8lHj77DYsPD9F71lydWJs3dsEi1qmjDF3ncCm2DW8i2UCJwlvEA0a2GwMV2zfb2z8rYFftqfN9kuAjdi8WLky9xTi89Dz5XksXa8FtjJxbAQPi+YDsNEfLfLYqW2831LjoIHH032v63djgY2VWnYWXPrWZpY3mJogGIeViLwW2NJOAvIQVgEBDNaTGXuPja3D8Kw8qDKiWNBpncDWpUosKwZnYrxEgwY2u5sF243GLy+18VaEhZAXCVmgxA6BvPJ5z2SfRIItsilSDzZAkU6R4TBVEeaIvPfxzHqD5wuwHXlRYlYgxEd9kJnDxmTqWZ1pY4GNQbOnkRR5EsnPLoGRmflhIhR/ZYEtdh4bxmYFYAKiMWOsnUTixCDF/qCSoppCWeeY1QlsOFQUzwVwY+C27bXXxNlZW2RaBZfzoC5V1Epa2PnKSJj2oyP0R/3RPDDnLDi6H0vhAQGhdRTgIRWVkUgU88YYyqRAH0SK6o+1gXuAoaW6gI1YS1GR84B2wUM4aCCOA+OeVfdxfmX1qY77PQGbJBN1GM9JXqOKjg4v4/q1gZi8t5ewAABHxHYWPsq89lrbBUctKW8RsJHPen74uPOOV1q8LFFHCQrFHiJKH+GkNtQJbLyD/Y0iVG0OZ9R+Q54DdoSFKPhXeQcNbLSFvaYipC1rq9R4KSVMw/Kt3WuMw0JE6E7enLGzQ8RYqX7UcmkGOJVi0rbyWi9w2tkgAzvvwAmgMjbFNKKFQ22pC9isQ6MMsNFOTqYWMQ52h0iRJmP7WcV1T8D2xMtJw+kAoRJ4ntIN4YMoOoONcIt0OfubgcVukSZ5tWzevGs2c1tCisOATLAkEhoTACPZvhHfJDWUussAG2qINVJzokRWuxgffQyovvYYHkJJYuXqBjbeiQc1TXxI6ZAYK6XMBbAhXdkgYZwtqHiAFmMLjzC/2DOtB5s5lhSuMSb2SoR9FalLQElKWA7qqwiJK61yWlWedvFNKAqf9uCBBRgl0SDdp0/GOc3YXgkwpu3EXsKj9JcQJal1agtpXcCG6QbpHWKXiw2ByYp1tPGNhBN9MnPMWdE2Qs1FlWlPwGZXODu4BB1KkiKCW2qNzaNrBikvXAGR1n44Kkfar+eJLU4CEltf7BrGTO9dLANsTApttyCA1JM1WXZ1Uzvy9tANAthoKx+Q3cuptpHyQdInzq4T0S7bR0kUdamiehcLgN2ipPZkpdilABmVV8o9dltYAoBQp5BcLeEokkNJ5ZVap4YtE7u2Ep/KM6Zy4sTK6B52Wft91AVstCvre2dPsdptU8Bc6rraS5qOybRl6rruCdhohJVKbOO5VmR9+j6/sWcU/cV3NuhatcHWw/0YY5YdGOxeWX8mkA8WpsJLqU3ntt4uYCs4tojVTCsz7c9qM3sHsdVYQkW177XXgwI23olEwq4BpBcdecMfvEGK5rm1cyER23YOCth4JzYqPposnmFskdhYbPPUTHYAICHZQwDsvABy2OmKHFB4ylGN7fzbepAY8/6sJPUThiF7qy3LgsuighRpT3+pE9gYY2xtCC5W8s0CNvLbLVZqf5aEZ/mm6uuegQ1m4ojlsgTYFQVfctSzYqli9cIQRQb5sgMDE2PUPPi8VudIctRQJK2y5avOJy8s4GqZtOr35NWHnU+neJQZ571OT2xTg4okz2s/QEy72VhOyA194QMDaGSgzytvnwHoqFSYSjiaSWBu8xRds92OEBO2sx1xYatj241tjM+qB/UTJwFgSqA4G9hjW/Cyys+H+9qRge1wLtrTM7Cpkaza9nylGCDxh4+1H07lbArTWM9lug50dJjMlmnStd1/OJuQg9mOiT0koEhtQGVa/d60pImqZm2Rs22Hl+/eo7xQx8M67WYTIzib/vcNbHop6tv7M1ty0sDEb8CNAxiVnxT3NsbemD5OGVzhBCpqL50t26RrazBmVZ6rvtmTRxh/pIxYWwAxuxAVgWCsDr/XDPDKm0cdDEAkQpYpJq98Fc9mDWw0Ar3fHsMdAzi8pCA5diSrr6fz8uGUUYeq6Pwg60ClQO3UP/acon5ChC8Msi2xd9njl2gTeyzx9uFpBOiYP+sUwsHQq5oXe6/fW9hAR4iUeJpUG+Lhodi5hIOa70qATY0lgtr+4YzOV1vyPz6UQce6qN2DSAnsjRGhHvMBIHCa2BNEYm3VPU5LdRV0YQNSVTyPYyVGHCpR1Tv6qadSYFMD8PyggpYhjIwnLx+LeiNVXxNS4qFkoFc6H4EcLxiqhE7vYA6J68OBw+qMo6cJ8+F9qAaYcXCIn0mR0oi/m+vxrQXY6BSuazxU6Z0DAjsi2NmQPFc6+FwPvL+/mg/Lx9HHMcYDtQGbXgZwEX+D7k18Dn8sg7P800Gwyu+pM6rzgPPAbHmgdmCbbQO9vDO584DzQK884MBmDprsdfA8v39wzgPzkwcc2BzY5tzQ6+AwP8FhIc+LA5sDmwOb80DjeMCBzZm6cUy9kCUNb3s10qsDmwObA5vzQON4wIHNmbpxTO1STzVSz0IeRwc2BzYHNueBxvGAA5szdeOYeiFLGt72aqRNBzYHNgc254HG8YADmzN145japZ5qpJ6FPI7/B8cEvdIMXFPNAAAAAElFTkSuQmCC;" vertex="1" parent="rgceRy845r_XPvcVsGcQ-18">
          <mxGeometry x="50" y="70" width="150" height="30" as="geometry" />
        </mxCell>
        <mxCell id="rgceRy845r_XPvcVsGcQ-29" value="The Skyhigh Cloud Connector is configured to receive the alerts, Incidents and Audit log from the configured Skyhigh tenant and to forward them to the nxlog service on the samer machine using LEEF format" style="text;html=1;align=center;verticalAlign=middle;whiteSpace=wrap;rounded=0;" vertex="1" parent="rgceRy845r_XPvcVsGcQ-30">
          <mxGeometry x="190" y="461.25" width="250" height="90" as="geometry" />
        </mxCell>
        <mxCell id="rgceRy845r_XPvcVsGcQ-31" value="" style="sketch=0;aspect=fixed;pointerEvents=1;shadow=0;dashed=0;html=1;strokeColor=none;labelPosition=center;verticalLabelPosition=bottom;verticalAlign=top;align=center;fillColor=#00188D;shape=mxgraph.mscae.enterprise.plug_and_play;rotation=-180;" vertex="1" parent="rgceRy845r_XPvcVsGcQ-30">
          <mxGeometry x="90" y="121.25" width="60" height="75" as="geometry" />
        </mxCell>
        <mxCell id="rgceRy845r_XPvcVsGcQ-32" value="Rapid7 Connector" style="text;html=1;align=center;verticalAlign=middle;whiteSpace=wrap;rounded=0;" vertex="1" parent="rgceRy845r_XPvcVsGcQ-30">
          <mxGeometry x="90" y="211.25" width="60" height="30" as="geometry" />
        </mxCell>
        <mxCell id="rgceRy845r_XPvcVsGcQ-33" value="" style="shape=image;verticalLabelPosition=bottom;labelBackgroundColor=default;verticalAlign=top;aspect=fixed;imageAspect=0;image=data:image/png,iVBORw0KGgoAAAANSUhEUgAAAOIAAABECAYAAACcVekkAAAgAElEQVR4Ae1dB5hV1bWeTrFr1BiNMS+xJVFfEpgGqEHBjr2bqMBUqkgQBEWKDEynF6VXRRQsgIpKmV6BmaH3Ir3Xqf/Lv/Zd95653OkDw4v3fN+ec+bcc3ZZe/17rb3W2vt4wH24KeCmQINTwKPBa+CugJsCbgrADUQ3E7gpcBFQwA3Ei6AT3FVwU8ANRDcPuClwEVDADcSLoBPcVXBTwA1ENw+4KXARUMANxIugE9xVcFPADUQ3D7gpcBFQwA3Ei6AT3FVwU+C8A7EMgKQyoMxVsvzu7g43BX6pFDgvQBTA1ZKiBK37cFPgl0aBegWiSj9XRDx2tgR7TxZix7Gz9rT/VBFOFpW4etwmPd2wdEkc983/OgrUCxApAUudMHP4TAmWbDuKAck70W7eWvxlYi6uG5GJJnFpkprGpeGm0Vn42+SVeHnBeiRk7kbGzydwstABTGZZyszdh5sC/+UUqDMQCUAFzInCEmTuOYF3lm7HH8fnwDshG54jCuA5PA8esVnwiE6Dx9BkR+L/8dnwHJkPj+F58IvPhP+0PMRk7Ma6Q6dxtqRUJKOW8V/eF+7m/YIpUCcgqrQ6XliC1J9PIPy7rfj1mFx4Jq6EZ1wWvKNT4BudAr+YVPhEp8BrWPI5ifcbxaTKc17RqfCMz5F020crMTBlFwoOEpBlRlX9BXeUu+n/3RSoFRApAZlKysqw4fAZDEzejd9/tBpeiSvhHZshoCLAPIel2KSfni3S0CoZh5rfCVSfYSkGtHFZ8IzNRMDMtZictx97ThZKT0jZ/FOLo6yMgK461SJreaWqvK35VvUsf6/tUdO8K3u+tnVwv1czCtQYiGQPSsLTxaX4busRPPXlFlE5fRKyBUDedvBVBLqq7xPA3sOSRaJ6J+Tg8uHZiPh+G1bvP1UnVdXMZcuk/myDy1RqpG/NyGierix/K67I+C7LttyvLRCrl7ejdZU+L7So/YDgKMV9VRUFagREBSEtoFPz9uPvM9ai8YiVIPh8olMdc79y0q5q4JWbN1reJSCZr29cJrxjM/HE/M1YtuOYSGJK4/+vLFJaWlpVv8jvNQVjdZ/noFDdZ6tVUfdDdaZAtYFIpi8pLQPngxNW7sUdkwvQODEHvtGp8CqnhtYeeBUBknNNmUsmZOMfn23Ckm1HRKIIGKuBRpVGGQVbMXHBcsxclIbp36ScmxamYObiNGzYsbdGQFCmXpG7AZO/Sjon38lfrsDi1DzJs6S0FGu3/oypXydjxqJUzFiYWu55lj/tmxT8lLUOp88WobSaUokSlvVg3qyDqzbOXJSKj75Yhsw1W+XZ4pIS5G3aJfWYvjClfF1Ii0VpWLPlZ6F1nTnNnUGlFKg2EItLy8SK+dm6g7hzcj4aiSpqpKCnbY5XEZDqet+TRh4bGJsMz8FDn28WVwcBxsGhqoPMz6NHwqe4oV1f3PREb9z0RB8XqTd+91Q/dI6eiYNHT4CMSiBUdWj+bw6YhN888e45+fLeI90ShfmZH4Fwf0Q8bnrSVV1648bH++C+iAR8n15g3rGBrKJ6KAiPnzqDtp3jXNZB2tyuH254pAeWpK+RrAj02OmL8ftn3j+nznz+thcGYPic71FUXOIGY0XEr6f71QJiic1Fkb33BIJmr0OjxNzzoopWBlgFo29MKholZOGfi7Zi69GzQoaqsKJA6RwzE95BkWjSIhx+wWHlkm9QKBoFh6FRiwjc8tS7mLU4TUDAd1XiVURzHQxe7TcBnv6h5fJlOZ7+IbgvLFryIVOfKSzC9IWpuPGxXmjcMlLKtdanSYsI+AWH44U+47F5134ZDCobELR+vUbMhU8L5hcOtkfz5P/eASHwCghB4uwlOHWmUOpw+mwhhk1diCv+0Q1NW0XCL8hGk6Aw+f+aNm8hfua3diBqORXRwX2/9hSoEojKxAdOFeHVb7bAJ3GlqIkERmXAOR+/KRh9YtLhG5uOIam7RFWmtK7s0DZEDJ0Br+BI+AaGwKNZe5fJ278jPP07om3nBORv3m2TipXP6RSIr/SdAA//UHg271AueTQPQauQoXZgU9IeOHIcXWNmwpfMHxRW7nkv/44CxMvu74LoaYtw8vRZFJe4rgPbRpDO/jYdVzzw1jlt82zWXvJmvf7V/2N5luVTGhKQQyZ/jctbd5MBiPUmXXgmeK9u0wNxM9xArIy36uu3agGRc7GPV+2FV3QavGPSxJqprgnPoclwTgpC3uc1AcQ5Ho06vNb7+pzzWZ7hc05JnxMDTmIObp9UgBU7j0lUT2VgrAkQPZu3F3Bc0bobPpz0NY6dPI3CouJKpaIdiP0mwCPAAFGBLszt7wAiQaOqZMGW3Xi423B4B4TCJ6BjuYGBA4JvcAT+8vIALMtZLwDScrTzS0pKwbblrtuBO5/rJwOIl78BkwKKoPYKCEPLjkOx79BxaQfbQ8lcGRA5OLiBqJQ+/+dKgahyZufxQtwzJQ/eiSvFOa+A8BqaDG+nxHsCzGHJ8KXVk2CKSoLHkCR4DkmCd1SS3KPPUPOxniXPqGR4RSWVSx7Mg8kCbK+EHLy5aAsOni4SSpHBXR01ASIZmMzsHRiGu17+AD9krhFmpxSp6FCAvGIBolUqeliAyLpQxVMw0ohzz2uDRQJ6W8DI9wlGr4BQPNd7LLb+fMC8Z5P+BDTz2nvoGF557yM0ahEpz+sAYNrB90Pwh6d6y3xT1WKWX1hcfFEDkXW0popoX9f71jJqel3Xsq3vVwhEsjQrRoaJStsl0TLGSW+TclHJuCI2FbeNzMStIzIk8frGhHQ0oh8wKglNo5JxS2I67pmQg4BpeWg2eRVuH5WJyykdCTaLq0IAFpWMS2JS8afRWbhnbDbuHpuNu8Zm4W/jsnH7GBOp4xFlgC6W1PgsXDtmJb7delTaVJGGWh0gKnBUkhAUVFFfe/8j7Nx3uFLDTW2ASNqyXpROI+YswXUP94RfUDi8bOqhDgg+gZy7RmDolIU4W1hsBzDfPXL8FKKmLMS1D70tc0ArCE17OuLatmaed/SEkewkFMsuKrm4JKIxvJWCUl61BraRiTxIl48OPjzX5XDkY/LWcmp6Jh3r66gUiCyE0vD2j3LhGZ8trgoBDKXS4BVoO7sAc9cdwhfrTVqw4TD6LtuBq+PT8cfRmQhfvBkzCw5g+c7jWLX/FDL2nMRXmw6j97LtuPujXDQeakLeVMo1GpqMdp+txbdbjmD5jmPiM/xx+1Gk7T6Od5ftEAlL6arSlOFzXomr0GHRZhTZLKOupCIJzKOyOSJVOKqlZGABASVSYChosPh4/nJR5ZiPK+K7AqKCQvJzIRFZH2G40jIcPHoS4VHT4B0YDh8aVfwdaiqlok9QOG55sg9+zFwr7aBk4xxv3o/ZuOP59+DZnHU/VyXlHLNr7GzskoHEUfeLCYgEGOlKjYPt4tlVH7LOfE6fUbVcCFLNPwL2EpZl8qmuP7ea2dfpMZdAZIUV7FPy9sMjgVbSFPvcjkDwHLgcoV9vBJ37PDhIMX298TCenrdOwtL2nSoS98KZ4lIUlqg6Bhw9W4JFW47g4dkFaByVLCFxVFvvGJ+DH7aZOR+ZW5322XtPIXDyKnh86AAhwSt1isnADaOzseHwaamHqzGqKiCSiWlJFSloYWjO27wCw/DXVwcgf/Muyd+VilpbIBq6GRVs4459+Ed4jBh7WK4VWPJ/QChadIjCtp8PCrPS//dQlwSZX1qfNZLUGHsef2uE+AkV8NKAi0gisl80cb5KC/EPGWsw57t0TFywQgZADoK8phWbajz7gcYrtol9wfeVV7V9rs4iVQnmklKcOHUWGQVbMHdJZrlyWFZViXWZ8PkySdSUdIBwVWZN7rkGoq2zCKAX5q+Dx/DVaBzriJxRIHb8eqOAioaSIhtwNh0+g6w9J3GySMEHFJWUQZ4p4ahmAMb/03efgP/kVfAdkiTScUjabgmdY178nc/uPl6IRz5bC4+Byw1gLeosDUYMKPBMXIUxOXuk3dZBRAlRERANA3cQFfQf4dFi2fQMoFQyEkkMN4Gh8AmKQOSw6TIaOzM1y6gLELUjeU7P3ywSjuDXOhBYrKdvYCg8A8LEx7n/8HF0j5+DJq0i5TcrEFWq3/FcPyxKWS2qr2FWxxDFshpaNaVkIy2pMtNf2nfM53iseyLueWUAfv/Uu/jNY71ww6Mm8ZoupT+/2B/3h0Wj87AZEmzA+THzYPtcSVHtf32G7WbQRbe4WfB/YzD+5+m+9jK0rKrP/8avH+2F6x/phe/SCqTcs0XFWlStzxUCkTlSyvx2TLaJJY12BG67AiKlIbuaAKL0ozTjvZ3Hi5C+5yT2nCyyx4nyNzIvn/1y42GRii8t2IADp4vt4Wt8lwNBn2Xb0WRIEvxsqzcoCa2JKzc8R+SJSkv1lMR27pSKgegw7XeJmYmFyattRpNQkY4EgRhM/ENwRevumPdDlhCaHcty9KgLEJmHAMPGmIy2ubJ1V1GLWbaquGINbd4BV7Xuilffm4BfPdgNHjY3iT7DM5+76sHuGPXpD2KMcQahvbwGmiNqW1mvddv2oEv0LNzxfD9c/g+2OQwezczcnEYmSf7mzPm6tNc/BE3v7YLfPtEbT/ccJX1GVZOJ/eJ88B5/oxSd/GUS/v6vwbjkvi7woDpPYxjzr0GiP5Z+YRrgvk5aJWVy7l7XwyUQNdOvNx3G5WPyxFJqjZ5xBiIZUfmSIKNEO3i6GFFpu/G3qatx/egcOY/K2SPgI72UZgRtxLdb8MbCTXKPaxAVSHPWHsTvEtLhy8gaJwAqGLlag0uubh6ThV3HzwpTO3dHZUAUJg4IRciHU8RV8ebAyfCSuZpDPfQTaRSOu1/ujx17D0lbNU/SyhUQVUrJuYI5otKZZ9KPDHPs5Bn0GvGZMJ044Z3cEczPLzjiHEnIdnjT2hsUgYih0wWEZsCwlmKuBQwNAES2UXmF0uTv/xyEJq06yxyX82IzP+4g2kDj4DBYEzUEDjJ8hsmjWQf4BkfiD8/0ReLs76TvKGWVDw1Ny0SLYeDCmLk/4pan+gq4fQJDZICl9kC6kaYyFw9gHcon3ufvmsSYxulL84745nwCkQ3RxsSk70bTsWvRxKKWEgAVAZHvUcpxdX7X77fikiFJolJ6DFoh58uHJuO9FTsEqASbdAqAU8Wl+Pv0fHy+4bCosWeKSsWw02xirswLORektVTBZz2zLkze8dlI231COE3rryyooHE21qgax9GNzm4y6KoNO3HPqwNFHTUdbjqLTOHbqisYvcLDWPGMEcgVEAXgdme6w4/IurAcV4fOP7fvOYTHe4yEZ0CoWFHJBNb8yJDKRHqfIGQ7mv1zIMh4LEIHNOeyGgKILFPptCg5D5ff3wmegWZernNzttMvKESY3COoEzwCI20pQtw4BInSgjQQjaF5CK5p00MszzRg0QqtBwc2Ht+l5eNPLw0QiWtV+Uk75uMXFCpSkeA6NzloL8/bQHhBgdh9yRY0GqNArFg1VUDxTCCOyd2La2NTjd/QFiPKZU00yNwQn4ZxuXtRKJLPAfrPNxzCQ5+swa7jhdh5rBCvfLkBPkOSRBpWBEICkj5LsZ6OyMPcdQe1D8qdqwZiKDoMmizvUIXhCHvpvZ1A1wE7SjuATPCbR3thYXKeqCQKKGUwqx9RASKMUw2JqBU2o3oZklZuwP++xgEhvJwVlfkqM2oZHKWpZl3f9i1s2LFPgK5t1nyt54YAIgcZlpu9djuua9sdXkEmwkkHFK/mRuI1va8rbn/2XZHqAz/+Eh9MWIA3B0zEnS+8J9KToXvafp6l7QGhYlVenGL6RQc7agQM4H/q36NFnVTppnTj+4xsuvT+rrjpsV647Zk+uPXp3riVZ1u66dG37eXxPSMRDWAviESkivjGNxvhO2I1GsfQUFM5EKlqUs1cf/gMnpi7Vhz4lFRW6SWRMkOS4D9ppbg0jCXVzC25vrHHT9vQ88dtotJeFZcGHxvQrHm4uuY80WtEPsavNKsmyHQKEl4rU7qSiNIp/g4gkmG27j6Af/afKGFfOlrzOY6cfi0i8WTPUaDUolRkOZp/fQBRQFJcInOa0XN/wA2P9HRpGbUyE6/pZpm7xMxhtT5W8FmvpYwLqJpSMlNCMyj9uXfGwCMwAo1sYX2su4CpeQf8+uG38f74+fj5gPELa53Znk0796H3yLlixOEAWQ6MMn8MwTO9xojPVyOHGNP70fzluOqB7vAJDDMS1BbayH4lCP/3tUEyn+Z8lW4ea2I9PvkuQyzqnJ9qXVVqnmcgGkPE0bPFsukTF+aS0a0AcKWa0lVHabhs13Hc9TFVyhV2d4f1XUowzvdCF2/GzyeMe0Mkahlk4e8DswpwdXyaPFNVKJzmS4uu16g1GJyyU/qOnW7V/pQxqwIiGZQTb6o036bmGxWVHWiJeGHoF53vsTMW2+dhqlLWBxDZANadddi9/wjChkxF01adRCoq8ykIeeY9ziX7jJpnWzZVseqrjH0hgciyDBDLsGBZLq56oJvUV9RKm2rI+SFBOPITY2Ay/Wf4kO9rOltoVotcen+Xcq4m0oAGFBqw2G/GQFOCnw8cwfN9xkmIn5ZHmvHaJygMd77QX4w9mr/Sx/SBKXdp9rqGBeLhM8V4fO4amXtVB4gEEwnww87jJgCAIW1OBhb+Tyn318mr8OCcNaCP8lRRqd2AQ6k4IXcvrhdpWN5nqKBzdRaJOGoNBibXDYjsAHUYHz52Ev3Hz8fVD3I05Qhs5orsRMaGNn/jQyzP3SB+KVUn6xuINO2/N+4LXPlAt0qBSHVt6NSFsqKionmhM5NdKPcFeYKJA9xb8XPQ+N6uYoRxDCId0aRVJ3SJnS3hevK8TYLqgKpnaiD0AT7Vc6TMhxVcAkSxgoag39jPpSyCKz1/C/7wdB97oISWyXmi93+C/xlLbI/ksVnCFZRab7pWGgeHi/GM719w1ZQ7sr24YL2strD6EAkEVxKxOkD0GpqEP4zOwsw1B/HR6v14dO5a5B84JZN4lYrbjp3Faws2wDfKxLG6Ap7zPT8uTh6Zj/iM3cJv2nHKfNWViHyekkg7Yf32PTK/aNQyEr40ItgkEK1uHJW7xM4RNYqdyaO+gMg60ODy2Q9ZuOvl/ra5qsOVwXpoUiZk5M38pblGVa5gpYbSg8x2oYG4a98RtOkUK1ZdLjcTpqYVNCgMtz7bD1+tWCkqvmoXWlfrmf3Cg+DgeyYaymHRpLGqXY+Rotazz7nUrEnLcJsbxKiWYvDxD8WvH+4hq2tIC83XWpbeb3Ag0g0R/u1m+I0qsFlNK58jVgpEgmpYMq6MTkG/Zdtx5Eyx+AzfXLhJXBecj1KtJUF4ZhjcX8ZlwyfqXKnqDELOO9VYM3n1PqGljmpK2JoCke8TXJR0n/+UjZse+7dY1RwjcHtRr2587N/iWFY/Un0AkYzI+uas2442nRPEVWENeVMAWs8irZt3xJ3P98PqjTuFjjo4KA2sZ7bvQgGRgyL7deWGHeL+oQqpy9DE8hkYijZdEiUCiHWsLOyM9eZx9MQp3Px4T1FH1ZhGGjDgofnrgyVIgH03bOoiY3m2WJllbhoUidYRMTh1hu4u19ZllsV6NzgQ2eD3V+xAY7vV1GF4qZFEFBCmiAX00U/WyLxQJVbuvlO4e9JKzF1vfHPqQ2QIXO+l23HZsBQ0soTWOYOQ/xOIXF7lPXwVlmw7Jh2lHSb/1NhYYwsKsA0MtKL2TPwEfi072eYlDhWVFk2ChYYEHi+9O77KZVAEmXP9rPXkb3sOHkWHQVNk0bCO+s7AoyS03qPVkUaE+0KH4cCRE8JErkZ6lsUyqrP64pq2PRA/8zsTUWSbq2ldq3tmWUwMKbvj+b6i4qlbyBhpOuLFd8dL6J7OJSvKm/nwIA2b/WuggMw6OBKId7/SX9pPIL43bj4YKeVscPMMikTYkGlSL+bpSp2X+w0JRCsRpuXtx6VjCqplrHElERUoXAJ1dUI6UnafsI9AbDzfmbBqH24ZnyO+RGoeDIfjb7n7TyFgyirjAqlkZzgZFGLScVlCOtYfOiPVd/bSVSYRhaHLWU0dQFE1defeQ/B/fTA8AsLtozlBwA5u1LIT+k/4UgwldZGI5DFKQ1r6hkz+Bo1bRNoiPhyAs4OvuXFo2/+3qapkbN8WkRKcYAY7AwJrn/KaTEaJaFboL5KoIe5MoPnxTKPUVQ++hajJ30idbBhwzqrK/9WybAdiM+OUJ/1kvtWsgwDRWKFd11cLsQIx4I3BIgEViALqgFDc9fL7OHD0hAwe749fYHyVNqc8y6Q0JhA5uPK4qIGoRM/eexJXjVopc0IyvEqk6kpEPs/QNM/+SzE+d699R3ASwIx+wKfrDqFx/2XitrACkc/Q3/grSsUYh1qsdTBnszmxZ+JqBE5bjWNnzQJe5xGuMiCKVKkAiKwDR1ZKlvnLcoRRqVrpiE4mYHjUpfdGir+K0Tm6MNjK1Jy7WFfoK0Mxfz1YDg/OlZq2dDiwpX7KtM07igWPxgo+oyZ1fYZnqmpXPNBdJBnr7UrVEyAWl4jzmy4SWYIVHG4HIvNhG2kE6hw9Q5ZbKU9ofat7ZllMq6iavvS+SG11qhvVNAzteo4B5+P6bEV583ceHEBufeZd2ZbEDkSqnwFhaPavQeIm4SAaO+NbKY99of0hUVKBkeD+QjyYpzO/2O83tERkc9lmWk6Dp+fBIz7HtiDYAMIZiJzXMXFeqVZTrpSQudvA5Xhy3jrQnMF82WgCjvnnHziNP47PhuegFbgiIQ2Lt5mtErmzN/fJYXzqY5+tg/fA5QJoV459AfqIfPT6aZsQVohovzIXdQGi1Ne2jKpr7Cz4BGugtVFROcLSOf1873F4sc9YseZZgSEMUAUQKQnJEOu37REGY4idzqOYF/OgD9O3ZRf0TPxUVC+6Ynxt4FEm02d5/uMzffHl8pUCNmcVlWWRJkzcNe7mdn3Ep2bNhyoxDSIPdk6UeSffqQ0YzWBQhp17D+PByFh404cYHGo31rANzd+IQvKqjdJZ2ldOXSj/sg48tuw+IPv8sL4yN1Sg+YfgqZ6j7MYa7pDH/X84WCpgSUdG9Nzz8gdg8LzSwrk83mfdG2yOyAqxvdroAUk74TEiv5x6qkAM/cYsg5Lnbe8JED/OldX1jKS58+NciZZxbuiRs8V44+uNaKKRMYNXoM0na+zB4drpy3Yexy0jM0RFtUplSkT+z236Gydk46ftrueHLFc7tyo/Ip/lSKpt1zqLVCwrE2dxwBsfmrmJfYWGUR3Z0dc80FViIGsCRNaN5XFeyJ3ezOqPEPsITmYTdSogTAwMXAxM2nA5UJvO8QIWK4AUjFyjyJUK2Wu3iVR3Nt5oH9NP9td/DhaXjBo+TB7txVpLv1/0tMUiZVhXMifr60wjpZXzmc+zbM613/xgIvxadjZ+OZv0plOdwQjj5i0VSaeDknM+LI+DIs8fL1gOD3+Hg94A0vgS3x09zyygLmUUzzbc9lw/+ARH2LUYqrBsJ+f3XFolbXLRHtKHdWd4XIO4L5QASujMn0/gylG58IpJF8unAIBGkkHL8cIX65C95yQKDpyWtObAaUxdcwD/Mz5HgOP7H7/h4JRdyNt/Spz13Kmb11wkzDjWGxPTHdEzQ5JwZWyqSLbkncehKXX3CTzzxXp4DFgu6w+tqim/qcFt/lvOzJdNpFh3V2pGXYHIfGncYD5zvsvAdQ+95WSxM2CUFQIW14KCoiLVVJmaxhVu4egdFC4jt5k7OYxC3C6D/rDU1ZulezgwMH25LFdCvzjiO4OREq1Jy0iEDpkmAwjBwPL0YP+yPVzf+HzvscKYXGplHUSEYQPDcMcL78teqxwE9OD71UksU8ulw/6y1t1Fumt9WYaXf6gMKgQOn2W9Ksqb0S7B7aPKGWrEoOUfgqtad8FXy1fJ+6TPvsPH8VLfCbKmlAOllsmBjbRuFTpMwKrgN2UaQaSg5/pIrlXVaYD0jc0wdl4ja5TQWhEuRXr1qw2y5o+MTyCIo35IEm4amYFHZuXjkZkmPTozH8FTVuPSuDTZX4aO9pZTVuGhGXl4kGl6HtrMyMMD01bjxhEZko86/XlmYlQNt8m4Z1y2nP82IQe/G5kp+emzRhqmwCcmDY2G52JUjm4IbIiobdBzfQCR9KC0PHTsJLrFzUZjzuMsnatSxMrIlQFRR9wTp87IloVc+sTAAWsUjwKBc7jxny+zzVcNk7IuBAZ3ebv+YRMPqYym5VIq/qrtW2L84bPKcKQLmY50IcOO/3yprMuzxtZqO9hGAv3259+T4ILFKfkSGE/jChfGVicdPn5SyhIJ9WxfAZGq3syfkUFcW/n6BxPFt6f1M1LboZ3t2n8Y/x7+qYSrkTbaTuZBizE1Cq6OYbsY5kbDF6XnNW262/yODsMX58AMJHik23CRjNyYmesbqa5aE6OBGhSI7CiVLkt3HMX1Y1fBJz5LXAUqlbyiksUt4c1NoSzJDhjuSzMkCT4frpDnGMStiZtDaT7WM/P0+zCpXGLe1md4zRUZ3gm5aDlrDTYdMdZSBZwCUM96v7aqqeZDRqbPkBEbLUOG2qSia0e7MrKAw8UcUYE9f2kO/vxSf1kHqUYgw2BGNeSSJ5raZRGszFtM8IACibGRYVHTccm9nWVg0HKVSSmlb36il8wFuYCVwOO7PERalZUJ81Jy+LXoJMuAdD6leZHRGat5yb2d8OeXB6J1ZDye7jUWz74zruLU2/z2zDvjMPazn8S3x9URfUZ9JtZnWYpkU+/NgBMq+T/aLVF2Hqc/lKBiYhwoAdF+0BRZj8n66KAjqmZAqAxGU75KFvCxjSpZGfTNGFSudSR99T22jeXKPrZP9sFDXYdLQAZX4WjiwNCW6r8suzIaygWXiNJRon5AwtA6f79VPpfGTZt0bSIBJ/M021IkvbaChn4+vW898771Ob1mnuIXlA/RmC0Y+asROF8AAAp+SURBVJ7+zrNsHBWXiStHrcSEVftlB3ITmeNQvRQ8PFuB6BnE+YKuwLeNkJVYTa358JqSiNs6UIowPpKMbu1cZd5yZ/9Qu9VUGYRg4I7fZICm93a2GxP0PWWwVqHRSFm9yWwL4RQxo1KVjNo6IlbUS1cgoqWXaym5AwDL16VCAmabypqyahP83xgCryAj6ZmPSh1lWkouX6rPsmWkWVgr7ScNXCTu+cN9eDoNm2F8mzbQ3xcWA48ARsYwTtb0hQE7V7t0xO+e7IvA9kPxYGSMROO0DBmG257vj8ZieDH0Js2ljgEhstC3S+wsic21zvFVMn7xUw7+9GJ/WUol822LD1bLZZvEqBMQYmJhbWf+rn0idLhQy6CcGU8ZnBZO/5lrwSBwWR/oFEdqBcr5vOb2GDIYxGbila83Y9uxQrs11rnu+r8CkQxBRqPljJ3IkU4Yt3kIQgZPlcetHanvW89kZI64DMhuP2iySDKa+WVRLtWsc5IxItwbMkwkkebPkb7j4KkiBVgfMqWAz7b4lQzP7SG4Yp9SmG1QSWatD+8zLc1ah+vacu7qWGCreUo7GcHSKRbH/hO/yjawHjyYJ68JTgL+3tBosfzSFUDVlnlw4CIDMx+Tyi+e5e/Oic/TF0ljTLfY2QJEGmxYNjduDu441IDRnidXyhtw8T2Z98ogZ1Rj7nDHsvkM57KkM3dVv+S+rnj9g0kiNc8WmW+FKH1koCk1A+e4ecvw23a9RS1mPqwf8yDNeTZtDJW8mb8mSu6LAohsVLFtidOMggOyfaFvfHY5FfV8As85bw4CPvHZ+PvMdVgumwsbV4cS39VZgUjDhUdgJyPBrItAA8Lxhs2vpEBxlY/eY34EB3dV4yJi7qItk3lrntbrgDDZ+EkZg8uBoiYvlG3tzSp8jrqUzjTHUw0kg3WRIGnOSa1zO62D9czfWW9ubERJo4YFzZOMRAlC10v7gcZ/RkAoXZgXBxf+z7kk94/5fbt3ZN7FIAYmWnO5Y7kuAarqTCnMxP13IodOFyBaVeONO/fh2V6jRcJKnW0GJwUJXRz2FfotwuzAEcnLLTUCwnH1A12krpw7ciCxtkfpo+1kf5E+Nz32trgvPJkH+8hGd6U96W9N5nejljaoRGSDqALRr8eV932WbpdPbPvFZYjK6QyU8/G/qMK2D5jyuxe/nbgGU/P2ie+S/ktXkkI7gmftoE7RM+HbsjMat+Doyt21bSN8cIREo/DZ6gCR5akxi8aSX7Xt4chL87SeaaGzbblPhv/0+wwx2YuVlMusqO5xtbqkUAmM5vOUHCyHzFTVofN57r3DlQWcEznyZN62/4M7YfDEr4RmzNc2XZTsC21BBbzPNZncb/WFPmNxzyv9cV2bbmja0kilcrSz0lGuHXSlZPNrEQ7WiZZhGk9IO4KCB1eXcF7HsLzL7ouEd3CEfBKBfj6TIuAZyMT/I8Rfy3Zc16Y7Xu47HnS98OBApH0sN5z+CBhtGkDW2m147b0J+M0jbxvjmJ3uSv/yZ1qsdSBrcCCyXeQFdjZXR7z5zUY0js+EX1w6vCoJP6svUIo6OiwFfnGZ+PWEfESl7sKJolL7dotOdD/nXwVqzrptmLU4XVY1cCs9Tdy+j/M1HlbGPCcjyw3tXH7DgptOffq9Iz/NV8/MX/ck5ci9JGONRL5wnjl67o/l0rh5P2HkJ0uQtcYEKBiwVA1E1pvtpPrHPJzz5f8sL3HW9/KdDLOdxrmRN5yKsI7Mi4kDE90ANJ4sySg4h3baRuczV47wHumSu367Xb1WEjJfHcy45IyOcwZph344Fe16jMAD4THwf32QpDad4mRBcfe42Rg/b6lE6Zi+MoOUs49Uy7CeCVQmpSc/N8dFv67opPe4AVf3uDkylVEtQ401lMz8qhbzKyyqeBd4ax0qu6508yjnF2W+CIiV8s2FG3HFqFw0sllS+dm0+gKeNR8CnV+A4ifBb560FoOSd8jqDUpClQLO9XT1vzKqdoQyGs+Oe67erPgew8f4riZrntZrk78BCu/zsP5e1XXFNSj/izJ2feRHyc2kbbOeq8pff9d3zP/l68r/CCBVuw2NjITm90b4WTxdLc9rGsj0GT1L/aoxcvJ5lsPnueKCg0B1Dj7HgaTc9hz0EzfviEtaRchgybyZb12PGgGRbZbwNEA+idbzx624+eMCeMVmwjfWfJymviQk86FRxjcuQ7ZzvGvGeok95TpJqskcFGp6kFFJXDOnMrtKm2szWtY0Pz5vOtlVnhXnT8ZkuTpKW+uj95hvbQ7TRpO3NV/rdTV41160to9Skgxnzad61+UDCewZ2y6UFsxbgw5YJq+VFlZJxms+W91BmPkzrzNni0Q1ljOvK0jUFPgbNQt+/Ceo/RCZ66pl3Cw5C8FvH+spOwCY+lcP2M5tt/5fIyDyRQUj+YT7kE5avQ/3z92IxglZ8KFFNSbd+PhqqbLSdcGvPfnEZsjuANeOXY0nP1+HxVuO2ONZa8mj1nY36DU7r7JU18pVljd/u1gP1k1AKFvwm71KzcBpQFnTqjMvJrp3qK5TLR8+u/KUMOs7eYYrYII7DLUZ0ByBAAJE/1A82jXBDBQuQiJrQ98aA5GFCMFsWydSReQHTN9Zuh1/nlIAH37vPkFD4rgTt0kEGH2E1iRST3brtj1DJ728n4PLRuSg1SfrkZi1BxsOG4d9TdXR2hDE/c5/DwVUgnMueNtz78u2izSs/art2xUmbs3I37nhMVVQ+hFVGtLnyU2PGdjAgHrigGXUx1ErIGrBVA/04y/cUPin7UfRe9kOBMxci6aJWRIH6j18tfgePbmdhZOzXkAZkyGfe+NzXgm5uHJ4Jh76bD3iMvcgc88JUBUlAKmKVlcd0fq5z79sCigQZy7i15nfkd0O6Ne0JrqKrP/zmlFEPOtHXo3vMsQE2PuHiFuJqitV8/rSMOoERHYzFR2qigoWrqrIO3AKU/IPoNOS7QicUYAbR2ejUWwaPOKyJWaV36pg8ojNxCXx6bh5XA5af7IW/VbsxPwNh7Dl6FkBIIGnnw2vqVryy2ZBd+tJAQUirdY3t3sHTVpGoHELfqE5tJrJ5vhnaFxAmHw4NnTIVAm7IwhdrfWsLeXrDEQtmEARMHL+QyKUlskHZQ6eKcbKfSfx1cZDmJZ/AJNW77en2WsOYsnWo1h78DSOnCmSb10QeDzk+xi2EDstw312U6AmFCAQmSYtWIFrH3kHnkHcXZy7h0dUK3ElvwfXhvLLzS++L3NHxvzqXLYmdanq2XoDohbEShbTZ+O0t6j+Xtm5HJjdIrAyUrl/qwYFqFExMTCCgRfcHpO7hw/4aEGVadDHX2HQxC9l82GuONl70Kx3ZbE0ANX3Ue9A1ArKqCGgNOqlEsXV2S799GX32U2Bi5ACwrvnAYRs6nkDois6EpwUdI5U/yOLq3Ld99wUMLxXudvI1TOknAoVns/XcUGBeL4a4c7XTYHKKGAAZhUANbk+f+Cz1tkNRCs13NduCjQQBdxAbCDCu4t1U8BKATcQrdRwX7sp0EAUcAOxgQjvLtZNASsF3EC0UsN97aZAA1HADcQGIry7WDcFrBT4P77/haNA5wf9AAAAAElFTkSuQmCC;" vertex="1" parent="rgceRy845r_XPvcVsGcQ-30">
          <mxGeometry x="440" y="271.25" width="66" height="19.86" as="geometry" />
        </mxCell>
        <mxCell id="rgceRy845r_XPvcVsGcQ-34" value="" style="shape=image;verticalLabelPosition=bottom;labelBackgroundColor=default;verticalAlign=top;aspect=fixed;imageAspect=0;image=data:image/png,iVBORw0KGgoAAAANSUhEUgAAASAAAABECAYAAAAhkeh4AAAb0ElEQVR4Ae1d978UtRbHrth77/gU7IKKWBAQK+JTnyAIghQLqGABaQoqIipWQFBQqkqRJiiK0hQBpVx653Lv1nvF/yHv853dM5vNnWROdmcpn09+2E82k5nTcnJyctJqVVbtFfjFvPQf77/LO3k4fUC7cO2h1PahFhTN/ZwMnA44HdgfOuAZoJzHQz2/S1EZTi5OD5welLYd1IpVZy2/SzOeoJODkwNGBU4P9oke1DKP8TLWL+cJqGNiV+7kJ/eQTj/y9cG1j3x51NQPFwNyMTAXA3Q6sN90wMWAXKzHxbqyBijn6bvY176KfbkYkBvr75OxvoupuFirN8umtDfnATkPyHlAzgPyOqH94QHmYkBkmWg87PL542InDycPahtInT5Eog85AyR5Ap6r5PK+Z+DkkR8TcfJw8oAOkMdUjD5IMaB/MxaNLHt1NPlPPx8latWqFfnv8MMPFxdfcom4484movuLPcXYCZPE32Ubcj1TRPT7PR0DXmX6H9HioYcK4nXL7oqSyJ/o7/lKr4LoMtXdRRdfLK657jrRuk1b8ebgIWL2j/Mjk3/rtk+w6W102+0iFlI/l1x6KRuejuejjjpKXH5FXfHAgy1Fr779xIRvp4gN23dk682uvcRTaZHudZ+oalPngPmlO18vUj2bidS7XURy8jARXzJPxGKVBfEXVh9UXvIYUKNbbyu64nUKoT6HUWrR8iEx/7fFoiJV7VtostSlTleWrRdHHHFkQfzOmDOvpPTedfc9BdGlyjgsf+qpp4p3P/hQlG3aWjA/5ckqcfLJp7DpRQck98hB9XzSSSez4YXxKJcfcsgh4rY7Gotvp30vNu8sD6VDpjO2a4dIv3jnAWOAgoxhun09kRzdX8TX/11wfQbVB8lB8oCyUXoa5/qekBK9tygvT6RFqSpeVoKg/w0bNRIbt++UeuTo+fNcz6ycdieS4qyzzy5Yyd8a8m6mp7GQr4yfPB3vmRyjyNJXDG1B8uU8Gz12nNiTqsr2oHz5/1W23kqO02bNydVzgPx2x5NW8Di8Bb0DD+njz0aInZWJHD1qO1Lp27hGVLWve0AbITJMqcEdRHxPxsj6+hbGX0i5MQbkK3NWaGTJ1OeUV8u37q4QRx999D6pfJ1CzP15gd+wVfqIbkqLKZ/47dSi+Hy0VWu/hyF61LRQ+hb98WdRtAXJlvMM3sGdTZtay//7OXPZ9B555JGetwtZ6eTzWr/+bHgcvsLeOe3008XiZct9vqkedfQlFkw/KAyQZ4ja1xWJn7+rwZtJ/ib+JQ/IbgxLY7icJaz5/YrVawWUMKzCSlleu3Zt8fXEyaExAg4/niB9i57jd/3W7eK4444ris9L69TJVGoA/AzeHD7b/KC33ymKtmLr54b6Dazk//a7Q9n0Xnf9DVm56eVzwYUXsuEVyyt9f9hhh4m27dpLHqCevliySqTeePzgMUJt6ojkiN4inkxLnp6BP88jDy4P9IDIUlOqWjB6TqmuvP8bg/Z5xZMCyCmGH2s3bvF7SKKbUh393PJuL/SIhM9V6zd5jYnwUlosffc90CIS+mSZ2v5HbI74UVOVP5t41ZMdO/m9sQoX+R0VcXH4EUfsN/4bN2kitpVnArlB9BHv8Z3bRFW7Kw4qI5Qa3FHEkimj/Ik/pEH8Sx6QEuvxe+LCn0cx82Cr6Lr3mzRrlu0pC+fHE6YilwVLfo9MwT/7fLTUo0RHZ9169fZbA6T6wATBgsW/h/JXnkwLeK30XVj64afDjfW6dtMWceihh7LhheErpLxZ87vFzljCSCdGEqlPXzqoDBCGZKlh3UP5Cmo3NHLK84Bka1Xs/807du/XSlcVBb0ghkrF8qV+37TZXZHx+cSTHSKnD/Qed/zxkdGoytUmjxmy8niux1Rlifwvi5Za0brw92VGmSEGaENjqd5t16GjkU6SRVXHaw46I5T85kMWb8SjnNbyYh/o1f11FP9meqki84uWLT8gKl5WqEcea5XhMyJ+v/hqXKQ83njzzZHSh4r+fs68SGmU5VnI/2V/rzHq1wcff8qmF4Y1TH+ffq4bG14h/Nh8M2rMV6H0pl9vddAZIMzixbduyBgh2A2L9pXnAdEYjSxUMfnxk79lVzyGanuSVQLrP5DSLyiPHq1Xn35WbjopCVz7XbGkb62L4Q8ywkJIgh1FitkTkj3SYunD94iRcGnDUIVkr6sPeJGY8Xus9eNsuDL+N9/JLTcI4s+G3nsfaBEqL5vlBzc0uFFM+X6m//tO+j95yjTR89VeRU02nH32OaH0Jv5cYGWAEst/EzEsdUhVicpsGnUe64BoKl6bdq4vKpPZJReaWfOg+pZiQGqUWo1B2JXD5ZQVz/T/3vsfyPQMXrRcxUv5fPyIFWB2C7EFE2y5DIsEN+3YlVECJZaT8wAJn5rm4+/U9Wk2XpmGsP+//f5HJPTRGNsmDodZG/quZprPP8oRXG3b/kkrOdzUsKGRv2uvu54N752h70v01qQPiyHD5C2XD/vkMwlecP1XpKu9Ffet2rSxgk14ur3Yw8g/5Jrudnt4g8+uoE5skzwPi/bDqV+vMwQ9LzYLp6ftZSK+9MdQ+al48zwgufct9j96cxJ6WPpyr9cylZK1nFzc2PrwTLfubDyYGoVScuHr3oMXdcwxx7Dw2q6MfqV3n6LpI7qxGvyUU/griuU1UwSDk9ZvcCNLFtCDE088Scsf5GozYzV15mwtLND9w/xf2HSBtlXrNhrhqbJABxim22o5FuaGxcGSQ7uGN/isAYonch69Sl8UeXhYWq9H3UbSub6IxeJWMjTHgGgsR6lnYaUxHj2nNFu+Ym2ZVcVg4VnOAwmH71nR7FhzVzzFXuzoGaDN2zJWWh6rKvTL8NUYQ0X6H3Hr7Xew+Wt+z73CZlq5wU2IA2VjcmrKlD99Dy+R26CxitdT2CC5EB0a/EM//IgtDzRIok9Nv5k63QoOVkyr9SPnbeg699zzCuJ/6qw5AnqlGhpdHuviflzwWz7dinyTM0axGn26/6P5cDT148u5gPLUG21YtJCRSiz7RVu/QfpVEg8Im/R0FaA+h4eApfLFWGtuLx+FBzTzhx/ZvIEubAcZM24C+xu/IUBZivyNHvs1G++ZZ51VMD7bmSYdX12ffY5NLzwJHRx6fn8L/vondBT0nW3ap/8AqwW3tze+04grvvpPVqNPzPnaCMeWj6D3052uZ9FCBggbWYPg6J5lPCCyjBGlqBDV0OjyXo9fJN7jTziBhQ/xonU0FY+e3hIvhggwEDpe1OcvvdrL66GwN4gbq8LQzpYu3fuIrak06fJXXXNNwXg/GfE5Gw92z+votfEsO3V9RgsH8Pekqr3hno5f9TlOC9DRxXl+7nnns2UA3DuwX8ygf1VPXG5u+Ii5VFRkPCADnLyRheV7iZljzDSoQ7BsPrZ7F5uuknhATZo2Y1fGU126ZioCwingZ7NuBMMM7E8rBA++GfLeB2y+MENGeLApF7EPVel1+bDYBsE1pZjF0sEPet7j5Vd8ek1wg8qwvCEIZtAzeeWyCuu88/mNGJ6o+r2cX/znCjZNoPO76TOM8GTYQf8RuwviV/fMGz4a9D39QmNj408/da2IS6uQg2gq6lmqWth6P+QFJRbNYcvSjwHFlbF/Mfljjz2WXRmffznWGzMWgg8zEhdedBEbF9aNeFOB1XuFLb4tO8vZsSYo3bjJ3/pjYVzxe55FD/nI/x6zpk/lp2zzNrZcQO+vS7KrlLN6oMIz5U848UQ2rq8nfRNY35hRs9k3uGJNmS9fxDhU+kaM/pJNE/j3OiaKxQTAU+GreXjHOmMT9HzxshVG+tMDzbGX9DOIFf7jx4BUeorOl+8SoV6YxgNKjR9Soz509ETuAeEsniCB656FrWQ1WfHefftbLbN/6dXebMus4n3c4oCspnc193doExybZQkYUsKDoW8LSWFQdDJXn5tmpsJw33RzQzYe4MUG5SCY2Iai0mXKh3my8KxN38tlV159dSBNQXSanuGANhmu6b8XiDZ4QKk3nzB6QKmPstP5BhgmWsPKkqMYa380Bij9Vnu2PH0PyDhWpJ4BzAbFTqTyt4bwdzJjB/nuRCrXEzDgAz+8EZvpdygChl9bdu0JpT+Iv9k/zbc6aGzp8r/y8VTvFTN+4K9IRrxo047dmUqUPVOmfKBcAwa9xW4MWHsTxLenpBr88EBwGqWpkallMHQYjvpwiZ/qvaJp8+ZsWPB68+iV9I+eYwe+il+XR/CbvgtMA+DnvZcttzHGc+b/kpNDAPwwA4T4TGxjmYhtWidim7Ip5dV0U5mIb9kgYumsx0Ryp1TFv6dcpNsVfkZR+tmG+fJU4RPeqr0icg/IJh6A4y3HTfqG/cNCMeyXsomnkNJ5R0KA8QJ+OPKB4ISl2Bmvw8FdO4ShiM5T0MFWn9uszal/443sOnj3/WHioYcfYcuD5AWeMCun0kn58y+4gA0Tx4vQd0Epgv5cWYM+E11B8HXPcPYR8RuWzvnpZyMPYQaI4i3cNN399syKaYb+Y0EhF67uPZ2M1Oe1aGxGqWfZpTEwPac0rLzelVeyKyGskqIqx1S/f16xEuMgvihV+UOMiksHPDrvbGeN/C77z+VsWO99+HFerERHHz2nFPRv21PJxsPlrdj3zj7nnJynGyAf7kwmDBlWsxO/agr+bQ40A18L/1jmw1PrPwi+HHOSy20M0ILFS431G7UBSs6baJQ/8QH+UyHxJ53RkZ8TPDVV5RupB4S4he3K32IVm/N9y/8+bOxtVKtMeQQWuQFWNIxJ300z4rGZHcRZ2kSHbfrzwiUHlAHCHrPps3/Q8rNuy3Y2vTBUWOFtkglifRy9wDugLWxlsgmXXGazjQSnVMrfqv9Tg8xBaLmxh/1PP32TEZeMO75xbdHeD+iRYZr++zEgslRkodSUU/7NNLuVrFwlKea9Opf9R+C8Zg79/orR7JjVZic18Kjfy3ng7z+Qf0AbGsaOynhmLC15DGq9UF7mb8QXdjNAxciX8+39Dz5olH9viyNTsQ4Ls4rEN6Uy/zaxqTubNsvzRAiemsrw5Xql91COxZwceeCdv+gGF8UjJ3hh0/BhRkcuT73/nFH+4If4S079LBoDJMcOJfjEH6WRekAdO3VhVwC3oop5Dwqxcu06tjWWLfWyv1azeUHQ2As8h4yvbWamwDfWssg0cf8jTlaM3KL89uaGt2QOaTfIBrvEuTjvvve+UJnYHME6dNhHofA4cscpAfCCuXzgvCwT3Kp2IQsRNTNQsuGh//ENq424ZDpSPRgbTxm4ZZim/9kY0L++BcxYQsqrKVlK9Xkmb+OCciuq0PfOOPNMsWLtuixfRK+ZfuoJcAzILY1uZStTqzZt2fKzuSVk8tTpBdEf9TEhhdYBZLhh2w7PW6EeVtUv2/U/XsC4mupTTfcKNGzuqnPw5Q2FfHg8/UDvrfLRd8AbbH3BESHq97J8EhtWR+KFwAClXn/MKH+ZjrjlUSBk4IJSGW5OXjXlG6kHhEZfqLJG9R32e/33kUe9s4BNltdUNnb8RDYf2PVvs8Me+4C4vD7X/QV2z0X84OxrLvxSvod1UziPmejSpVgRzPUcYFi8K28M3pTtAkTIS0ebzXMbo/9st+eNOBNzx0dmgBKz9TOPKn84XjXImFg/69rAyJ+MVxsDIotMY7WwPAK2NruCo1Z+xEzggWEjLHky8lg9jH4q314Rt1pdjXVPNvi6PMPfcHlF3bp+rIPoC6sPrMCOWrY28LAYb8z4Cb5HGEbvlJmz2fRiaBUG7/4HW7Lh4cooeLs29ReEf9X6jexTB6Cnf65aY5RPcvirkRgCbKXADaws/pJpgWC1tbEJGI6lX+ev5I/MA/pk+Eh2xdsotOldLC7EOcO49cE78NzQM8pW1/T/+R492XxAgdHj2vzaPNGODR+8e0MYC76iuqHDJHe1DHdzYTMm1giZZBtUZiMPbFYNgiE/s9magyuW5W8L+Y+FldBBVSa6PGbxwk5/SPV7OBJDkBz7Npu/xA8TIsEJA5b6ciAbrxIDqjm2zfS84c9vszgjR1c5Ns+haDgLyJuSDRiTc+mW39u2J2a138uG3kLfxbGg6HVlOk15mxmgQmnCd+jJcbrhx8NHiq3llQKHw5no0tFvc2D+8z1eCpUDdz0ReJg0ZVooPB3d9NxmnRhwNm7SNFROUd2UGi9byeYv3btFZAYo8ev3bLyReEC2u737Dnjd2/yH/TzyDwFE7p3giBvM/3UR29Jyejfc4VRMoyzFtwMGvmnFo01v/NWESXnyl+si7D9HnmHv2F7B7B1cZ/AGV6/fxI4nwWsL80TC6MdJDNwD36AbCFF4m2gNPMRnjY3EEKT6PZLZemHA5fMXi4l0hNdDx3dsY+us4gFRlFpNqQdWn2fyWP2L4RC3AZZt2Za1kAQvB9/mbBl4Qfk9L8FT0xz8TM9VsxzHdx6Iiyi9YYLvAal0Uz7DH64D5tYB3luyXO0hCZ6ahssvWK4EJ/h7m/1x2FqBEx6D8WTgo2Pj8g9DjXvryZMJhqunH4s9Tz/jDDY+0HX1tdca6UesJt27pW+A0gHxFW6MJrl0nhT7CZY/xYZSo/r6OLnwde+l3nlKwquXH8lbOpRe2SeFxXiwnmpKFlV6/sfKVeyeBxUfCJfgVe0V3Nk0zIr456pI34fBV8vhwdncnsBV8ijeO+ecc/PlFSB/4gc3TnBxwth6M0okN0oN8D08EZbbnK+EvW1h+G1morBliOSWlzL4g+d46mmnsWWNOoH3g5s1fB5I3lKK832qOlxdvDHANTkVe3j8JZOiqmMEOLPGMvFHdo+bxJdJvp4HBGsk9wS2+V59+rIro269Kz1cJnw2V77gXVt61fdtvC5uA4/yPbjtJnkRPzY7yuVYBH1PMZx9lbeht2PnLn7sJIg+7wpmixtSXujxkhEecKjywGmaXZ/tZrXOiPTgnvvurwFPhZ8a0at444Mg8Dg6jyfTroPk5fO3dqWoanNZJHirOtcX8XjCqj1GEgOyOQcFh235vQD1NkqKVaU2Y+tido4fKOtmSFGDUlzWFyYzlNtsdvUOglPkzsER1TvYN2gzbMcsqwk34j8IjAfJL+gZ4jcmeFSGfWJYTd/9xZ5W8GWcOKAvbEU+jleNJPjcvq6IVcZYvOF4jnTIuUO6oVaN53Qtj6VOaWJA5BHpxnC5ctsrmPNXsurh39X8brYyDR76ftZD0MPLWPya5a0tDhqTlWpf/n/40f+x+OMeQYEAvme0/T06ufr0e8a8PUrRl9tumEV8i2IW5DnI+Z8WLGTrCyY6MHuKGFAmrc7L4/bWT0eOEg+05K8pMunDVxMnh9Zfcko0e7DSPZp5xken73n1u2NrNJ4Phl9dG4jKtC6mptefmjEg3dhN8xxHGZiEr5btohswNPAo5mRzswYa3tby7FnPIXAJPtIZc+YV3KupfJUyj/OIZLq93lnh0yagC09Bf0GjJvan4AujJ6zc5gpmnP/kbUBF76qhw2bjcCnrSoX9+ptvZZeK6OUa37ZFRLX3K7EyOzOskZMsv8TPU6IxQB2uFPE9dICens8gvS06BoSAnCp0Xf7SOnX88aFsifFfzaNnshlSDB/1RegYm3pOwmdzah6CwThALaqfTcAU+8dU+ah5xEh0clef49wiefaQ5KHKp5T5Dp06s+nFTKDKr5o/8ST+of+qPEqVb9/xKVGeSPk6r5NnVLNQ6efv8HGp8gnK4/0aQ6kCZt6S00eF1k8QfsgjFwMii0ljOGbeZiUrVizT2Nq3xAZ8Nr0kpjh92HJPqYE/5H3+DRcwAGs2braCH8YfApo2ir9omXJ+jFQ/MCY2Jwpin1YYfaUuR31x+fdWWEv85vWkVXu9G025sPbFe/Aw0SF4i2Q1+kfyTSyeG4kRgCFJjuqX01GDvCC/+N+LI8Gb+rxvBmcIPuLXb6PZ95UYUL4nQhbblJ5mMR2Jc19kS2iCi/fWbNxitTIZt1Ry4GPdks0tFZ+MzLfwYXRzymE0ateuzW6Evfv28z08FT7uwLLZZb9gye8sOal4osrvtLyCGcNLU73O+nE+W46lNkBY2T3w7cFGen05VlSIdI8mkRiCqievEvHdO3l4cerhmIFF402NfI2NT1d/RcWAlq9aa1Xxs+b+lOt5yWKGpDaHz+MKZN/SGuC2bf8km25sgMRGWw7cvJ7ZgJ/ew659boPQrlup3uut5+EeQYF4GeHfXynWw3D5xntrNmw2yh/H19rAK9W7CBnMX7iYLd/U0C5FGwEaQqWGdGbjxXoj3CtG3xaSpkZkb5hh6LlJz/JiQLBSNr/xk79jVzzcUhvY9C4WOXIVBovrNm3PnBdM36sppvi507+gGdO7Koyo8lNmzGLzRmfIBOG2adCIZQXB2JfPbDoVnCUdRluLlg+x5cjVJZv3sCkZ1wqF0SmXY61OIQ1f901i0Ww2/tSccYXj7nCVSPy1iI1L5jnof1ExoF59+rErvsZ92GQ5Q8bIGKrYHHSGKes8iyvBx5jcJviL0/e8YC1gMOn1cDPfx14krjHE3iUftgL/tjsas+vBvx2kBPzo6FPrw+YK5s5P0xXM2dkVqT4JH9f7szEqnHcxO4eTELbviVnpR3zB9IIv/QsyQAgmx6qUc7IN9Zsa1LYgA5Qa1k3EKiu17YvqQ61vUz7PA/LHpgGzUrBeajnO0+VUFN55uVfvGt8TPLKMlFdT3CLJPbTqlFNOrYGH4CNWAK+GQzO2jCBWQd8G8U900juUV1NdOWI3NjG06bPnevTI8HfHU1Yrc3Fyn/w90VYK/ggP4aC8zT3qM7PxHx19uF2CU59RvQOP7NU+fQUWMuJOO+JNR59anvh7aaTGBwYpOX1kDb2Q6SEaPPnjzq/29awMUGr0AJHYvK6G3lB95sEPsBOmcikG9G++ZSML6qc1y22uYB4zfqI1fLKcWI3K3SUPRRs89L1cj5SlH5cS2tCLQCLhz6Q1+Y+iHIfZcxvHo61a1+Br9YZN7O+BZ8XaMoUvWrdRGv58zxGKWbVXbN5pd2Rqjt5g+j76bLgV/1xZY3V/w1saiccef1xgkyuulMY54fr1SMH0yfx7626KuPAvyPvBs/jWDZ5xyNdHqldKM/SlvnzDbHyebSjgISW/HiwSC2dLe8rC+ePgz8kjQ1eeB0SWyqV2sTAnLycvpwOF6YDkAZGldKnZkjv5OPlIMUF/hOD0ohC9cB6Q5cyf6+kK6+mc3JzcgnTAP5QeAaWMBQtIYeVduZOPN/vm9KNGO3Hto2D74Dwg5wHlzeQE9VLumfNeSqUDLgbkxvCaWTEX0ygkpqHO8ri8WY+cB+Q8IOcBOR3Ybzrgx4DgYvljW3VMSwdXUQzAleePeZ18MgvhnH5k9MK1D3b7cB6Q6/32W+9XqriCg3vwxKykGBB5QDRmc/n8GICTh5OHvP7H6UMU+uA8IOcBOQ/I6cB+0wHPACFS78WAXOrkgFig0wOnB/tID5wH5Hq//db7uVjNwROrKVVd/R+JJNS0qJo+ZAAAAABJRU5ErkJggg==;" vertex="1" parent="rgceRy845r_XPvcVsGcQ-30">
          <mxGeometry x="90" y="121.25" width="63.53" height="15" as="geometry" />
        </mxCell>
        <mxCell id="rgceRy845r_XPvcVsGcQ-35" value="" style="image;aspect=fixed;html=1;points=[];align=center;fontSize=12;image=img/lib/azure2/general/FTP.svg;" vertex="1" parent="rgceRy845r_XPvcVsGcQ-30">
          <mxGeometry x="443" y="291.11" width="60" height="48" as="geometry" />
        </mxCell>
        <mxCell id="rgceRy845r_XPvcVsGcQ-36" value="" style="edgeStyle=orthogonalEdgeStyle;rounded=0;orthogonalLoop=1;jettySize=auto;html=1;entryX=0.471;entryY=1;entryDx=0;entryDy=0;entryPerimeter=0;strokeWidth=5;fillColor=#d5e8d4;strokeColor=#82b366;" edge="1" parent="rgceRy845r_XPvcVsGcQ-30" source="rgceRy845r_XPvcVsGcQ-37" target="rgceRy845r_XPvcVsGcQ-35">
          <mxGeometry relative="1" as="geometry">
            <mxPoint x="240" y="428.75" as="targetPoint" />
          </mxGeometry>
        </mxCell>
        <mxCell id="rgceRy845r_XPvcVsGcQ-37" value="" style="sketch=0;aspect=fixed;pointerEvents=1;shadow=0;dashed=0;html=1;strokeColor=none;labelPosition=center;verticalLabelPosition=bottom;verticalAlign=top;align=center;fillColor=#00188D;shape=mxgraph.mscae.enterprise.plug_and_play;rotation=0;" vertex="1" parent="rgceRy845r_XPvcVsGcQ-30">
          <mxGeometry x="110" y="391.25" width="60" height="75" as="geometry" />
        </mxCell>
        <mxCell id="rgceRy845r_XPvcVsGcQ-38" value="Skyhigh Cloud Connector" style="text;html=1;align=center;verticalAlign=middle;whiteSpace=wrap;rounded=0;" vertex="1" parent="rgceRy845r_XPvcVsGcQ-30">
          <mxGeometry x="90" y="481.25" width="80" height="30" as="geometry" />
        </mxCell>
        <mxCell id="rgceRy845r_XPvcVsGcQ-39" value="" style="shape=image;verticalLabelPosition=bottom;labelBackgroundColor=default;verticalAlign=top;aspect=fixed;imageAspect=0;image=data:image/png,iVBORw0KGgoAAAANSUhEUgAAATYAAAA+CAYAAAChmDdwAAATd0lEQVR4Ae2dhZ8kxRXH+asSkpAQF5KQhBDijhzu7g6Hy+FywKEHHO4Q7A5318PdWZnd2d3K5zu7v+s3fdUys92zu33vfT531dNdVV3y+lfPqna9b2w+FPyfj4HzgPNAk3hgvSZ1xvviH6fzgPMAPODA5hKrS+zOA43jAQc2Z+rGMbVLbS61ObA5sDmwOQ80jgcc2JypG8fULrG5xObA5sDmwOY80DgecGBzpm4cU7vE5hKbA5sDmwOb80DjeMCBzZm6cUztEptLbA5sDmwObM4DjeMBBzZn6sYxtUtsLrE5sDmwObA5DzSOBxzYnKkbx9QusbnENhBg2+Ko0XDhzeNh5TMT4Zp72+HAc1phg6198P0DdB5wHqiHB2oFtr8ePBJeeGMyxOizr6bCoUtb4Ztb1NMxZxgfV+eBdZcHagG2n+403JHMJqdikNZ9D+D7x6Ejrg65Suw84DxQGQ9UCmzrbzkUjrt0LHw1XALRDL5NTYVw/cp2ABB9lV13V1mfe5/7qnigMmDb+tjR8Mb7cbUTDHvzg8lw9nXj4a7H2gbSui9HWlPh5OVjDm6+cjsPOA/MigdmDWy/2n043PloNlgNj06Fk64YC9/aMlmNdj55NHz4WbZU99aHk2HR4tFZdawq5Pd6knnzsfCxWCg80Dew4dU869qxbpEr9eu2h9vhF7vG1csNtx0KNz2QDYhUde+TE2HjPePlF8oAezsdDJwHBs8DfQHbomNGw0efZ0tcr74zGQjxyJpQQPHMa8ZCazyFhBk/T19RjXr6u72HwyHnt8L9T02Ex16a/vfgsxPh6GVj4cc7ZgPot7caCvSZf7/fZ24cHX/Yb2RNG7BlZo1t3v0/HpDUQV9YXPLy9/Ps34dPv+Ofhw1mnOClzY8cDctuGV8zp8ztjavaYfsTRsP67nVfa44ZM/Ez6V8OGsxc9cNP/ZbpGdj2PbOVAT8hfD0yFRZfnA9CB5zdygXFrMqR7vrtJGD07OvZ9j/eOTEZOip1bJJxaoiW/2+873b0237KXX9/It1uuG02COe9445Hkjroz58PrJ6hZWd95e3J2sfp2EvGwmi+0tAxebCIfm+b6kE8b6zn87Pf7pXwM3zw0HMTtc/VoMejJ2BjNc6iFfe0w09yvJrEtD35ykRW8fDOR1Nhu+NGw35ntcLnX8elwTOvzQfN2OD954iRtZgfJwVS5YtvTq7lwUWK/O+R3R+8A1t5UBgUsF17XzdI41n/+POp8Mxrkx1eYqGy9MgLE+E7i8r3I8ZLTblXBtg22Xuk4+zD4ff3Q7q/h4UwDj0BGzavND2/ejLkqR3Y2AjlyCKA5NQruwHrh9sPB4AyTUiE3+1hxwLBv0gOIsBsp5PWVpEBv8dfSvr26ZdTXaqpA1t5QBgEsLEAigC05XeNr2XLRd1CorOhR5fcNjfS9nwDgjLAtsMJyRgffkFrwUl0PQHbx190S1KX3p7PKAxOnqrw3idT4Ze7ZatV2xoGFiP/7eDyq8eupySTA6gBmFlMxmr+9KsJCPJRKG9TgG0QNrZBANujLySL0FEX5X90eNcVKD42HmqxK4pPFkpaxsa2TgGbwEVpkY3mhMvzDSBPvVqs27/9UQI2vJdQkbIMdMaK5P2EnBSVw5AqeuDZpG1NAbai/lfxfBDAhuQOjbVDVxhRVvvvfjwBwl164J+s+taF++sUsE12Y0zAbpY3yYBJHiEh5ZXnGbY3S0hhRWX0/JzrErcrG+91PyvF+4k0gFeNUBXl6wK2u/KlVOL6rMdpg0VDHTVJ9362c7bUqPeRR/k3mgmXsTYlOQ+wfZx4+Vi47r52p93Ykdj58f3t4u8gllD15nl3N9t/JFyU8jJeced4wDOrNmKMpy7y6h6pgO3lt5K55SNhkWFMGduVT08EnFD9eiwBNIj9xvbdWdf7nNFa4zHlOpYPs8V2x492Yi5X3NsOLGwc2AAP089Ymdg9xuiIC1qd8ePQB/qMbXi3U/FCx+cF84rmBTUxVq+9x9wpPzyrZ/Cp7ovPqI+oAmxl/MNOTn4iBJQXCY57/zosqfek5cm3i8dZeUnJR37rqVcdaksste/M4tFYuX7u9aSKLjRgO2xp4sG96u4EqHodqLLAtuXRo102Hex2ABthB6LL7sgHRtq27NYEkCWhWmCDKWC2LMKudErKbkm9OHdEV0a8u6jqq55JpBvlVYpBnsWCcBMWCuiWB7vH1QIb9RFOk0UsWv1IUHoH9WLk7nU+0/lR0V97N7VqpxrNgvfrPbJB50c7DHd5rlPFOz+xJwPwaUAHqETn31jMH/CyCN5Uf3ZfkvAZTjh+p50ox8yYWC64OeEfAIc6Xi8YA72TfOQ/5/qkDhYqtSMrfezFhBc2yjFBZZXv5X6jgQ3pSYSdpczgxwavC9gigEAZ6m4n89ZZqbWaAgQyYuOYyDvRhGfkgfDeqg4LbAILvIC3P9LuHAmFdPHc6u6PM21/ygM24vjsx017kVy00t/8YHtN3CGA/fDz053lvh0zgQ7SFFIbhH3zplXtsPSm8U5QtpXCWSx79bqxOIg4ROHnuyQft21LmWscX1JtqfPtDycDfeq0dVW7a0zIF5OofrPncEd6VJvo0w0rp8eOBYRwCtn5yHP5nd3gVQewpR0naluVwIYpSnTPE4npJjbuzBGOHojoiFieKu81GtgYKBjLEja7824Y7wQQlxGfqaMI2FA1LMXCUmw7tjk2W7XZanGy6gJmmmzUTUsEoMYCbAFYMdAXX091xW/lARsqogjbZyx0h4UivapnSWyqC5UmLaGgEluJARVa/SyT4mkfmrGz8R5A476nJsJB57Z6kuCoR6CGZHPguXH1eP+zW2uAKR3zxUJEZIAIlT3mpEJlX232Uu94YsIDdQCbxoW4S8aFvdyokXLW2fGXxGbHvqyNTTZwFvUsVZt6MZmIimJdbTv6vW48sPERXW1Edw0uKQDA5nwCV7FNxSaYgc0CNqQpbCii8Xa2VMhODBGSUNaEWQDEK6x8NkAXb3Le7gOkI5FUWerJAjZCYERIVzHAVDuw+VnveB6wpaU51UFK+9/9OLGf5u38sOV0zVFXzF2M8MQjFaCu77FktGMOUDmbovaJrBfc5tG1BQLZqXiGKi1Kj4XKKkUyFRFvp/t1AZttp96l1PYnxvdlgQ37nYhdPao/nUqbQJpFbU8/r/p344FNA4Yd5daH2mukGU2GTQE6VlzAUOVIY8DGqmwDjlHd8hiJerTxn7wxYLIqK6qcVVktsGE7tO1LX1ugsra2LGCzMYMyDKfrtL/ZPSJiTO0zqaI8t84Gm0fXSM6ivC14yp9OmadDzmsFgD6PAGKklXR5xhhC9U8/S/9G0hHZMCedVsMHK0dPuqz9bXfA/GAm/KgOYGNxs+9NX1cFbNgdRWlpVu/EDirChqv7dabrDLBpEFktMOYvuWraSxfb88rgW3CzgEAw6MZ7DHdJC9iMYque3qnUMpOVpPTcrpJpJ4NVRYsAlLaIcESoftsPJEPdf2nGFgbw6l5eikQnSkspAjZUEwvMsfpQkURIVrE8Ze7xnj8dMNJRJS++bTyg2qaN5gCPfccmxmBP4Ln1+mVda0cMarvaxek1ELY+3ctLN9038Txqm1dVwEb/RMdflh/eZHkxxruWF4sCdIukMRt2xZznjU9Vz9Y5YIsNHEABYCmMAOawjGElNgznYnAxEUxdxl7HPlRRTE3D4CxKg5eV2IokAwy1ImuozgK2Dz7t7eNkDHFcQFnAhpoZG2t7b8/TEmDr17Fj67PX2HvwDKLyiZCUpfIyvv0SKjDvIkxDhBPHvr+X66qALe0VzWtDlcBm41Vj9jPZ4aYDpOtXQ+m3A5s50M+ueKg3YgwLbGJkUmtwT3/gKptOZXxnki0YYq/DCwrFJCcLbHk2MN7XK7CpTfpg022O/f5yaLqtWaqojWOLledencCmdyJ5y4vM2GJL5Rnb6PolJHTqADxFszmkwUqPqOdqe1aKjVYEbyqf5V8cHrofS6sEtjyPp13MsWXH2lLHvcYCm90PRwxS2cF739hrkHAolwY2nAR8lHj77DYsPD9F71lydWJs3dsEi1qmjDF3ncCm2DW8i2UCJwlvEA0a2GwMV2zfb2z8rYFftqfN9kuAjdi8WLky9xTi89Dz5XksXa8FtjJxbAQPi+YDsNEfLfLYqW2831LjoIHH032v63djgY2VWnYWXPrWZpY3mJogGIeViLwW2NJOAvIQVgEBDNaTGXuPja3D8Kw8qDKiWNBpncDWpUosKwZnYrxEgwY2u5sF243GLy+18VaEhZAXCVmgxA6BvPJ5z2SfRIItsilSDzZAkU6R4TBVEeaIvPfxzHqD5wuwHXlRYlYgxEd9kJnDxmTqWZ1pY4GNQbOnkRR5EsnPLoGRmflhIhR/ZYEtdh4bxmYFYAKiMWOsnUTixCDF/qCSoppCWeeY1QlsOFQUzwVwY+C27bXXxNlZW2RaBZfzoC5V1Epa2PnKSJj2oyP0R/3RPDDnLDi6H0vhAQGhdRTgIRWVkUgU88YYyqRAH0SK6o+1gXuAoaW6gI1YS1GR84B2wUM4aCCOA+OeVfdxfmX1qY77PQGbJBN1GM9JXqOKjg4v4/q1gZi8t5ewAABHxHYWPsq89lrbBUctKW8RsJHPen74uPOOV1q8LFFHCQrFHiJKH+GkNtQJbLyD/Y0iVG0OZ9R+Q54DdoSFKPhXeQcNbLSFvaYipC1rq9R4KSVMw/Kt3WuMw0JE6E7enLGzQ8RYqX7UcmkGOJVi0rbyWi9w2tkgAzvvwAmgMjbFNKKFQ22pC9isQ6MMsNFOTqYWMQ52h0iRJmP7WcV1T8D2xMtJw+kAoRJ4ntIN4YMoOoONcIt0OfubgcVukSZ5tWzevGs2c1tCisOATLAkEhoTACPZvhHfJDWUussAG2qINVJzokRWuxgffQyovvYYHkJJYuXqBjbeiQc1TXxI6ZAYK6XMBbAhXdkgYZwtqHiAFmMLjzC/2DOtB5s5lhSuMSb2SoR9FalLQElKWA7qqwiJK61yWlWedvFNKAqf9uCBBRgl0SDdp0/GOc3YXgkwpu3EXsKj9JcQJal1agtpXcCG6QbpHWKXiw2ByYp1tPGNhBN9MnPMWdE2Qs1FlWlPwGZXODu4BB1KkiKCW2qNzaNrBikvXAGR1n44Kkfar+eJLU4CEltf7BrGTO9dLANsTApttyCA1JM1WXZ1Uzvy9tANAthoKx+Q3cuptpHyQdInzq4T0S7bR0kUdamiehcLgN2ipPZkpdilABmVV8o9dltYAoBQp5BcLeEokkNJ5ZVap4YtE7u2Ep/KM6Zy4sTK6B52Wft91AVstCvre2dPsdptU8Bc6rraS5qOybRl6rruCdhohJVKbOO5VmR9+j6/sWcU/cV3NuhatcHWw/0YY5YdGOxeWX8mkA8WpsJLqU3ntt4uYCs4tojVTCsz7c9qM3sHsdVYQkW177XXgwI23olEwq4BpBcdecMfvEGK5rm1cyER23YOCth4JzYqPposnmFskdhYbPPUTHYAICHZQwDsvABy2OmKHFB4ylGN7fzbepAY8/6sJPUThiF7qy3LgsuighRpT3+pE9gYY2xtCC5W8s0CNvLbLVZqf5aEZ/mm6uuegQ1m4ojlsgTYFQVfctSzYqli9cIQRQb5sgMDE2PUPPi8VudIctRQJK2y5avOJy8s4GqZtOr35NWHnU+neJQZ571OT2xTg4okz2s/QEy72VhOyA194QMDaGSgzytvnwHoqFSYSjiaSWBu8xRds92OEBO2sx1xYatj241tjM+qB/UTJwFgSqA4G9hjW/Cyys+H+9qRge1wLtrTM7Cpkaza9nylGCDxh4+1H07lbArTWM9lug50dJjMlmnStd1/OJuQg9mOiT0koEhtQGVa/d60pImqZm2Rs22Hl+/eo7xQx8M67WYTIzib/vcNbHop6tv7M1ty0sDEb8CNAxiVnxT3NsbemD5OGVzhBCpqL50t26RrazBmVZ6rvtmTRxh/pIxYWwAxuxAVgWCsDr/XDPDKm0cdDEAkQpYpJq98Fc9mDWw0Ar3fHsMdAzi8pCA5diSrr6fz8uGUUYeq6Pwg60ClQO3UP/acon5ChC8Msi2xd9njl2gTeyzx9uFpBOiYP+sUwsHQq5oXe6/fW9hAR4iUeJpUG+Lhodi5hIOa70qATY0lgtr+4YzOV1vyPz6UQce6qN2DSAnsjRGhHvMBIHCa2BNEYm3VPU5LdRV0YQNSVTyPYyVGHCpR1Tv6qadSYFMD8PyggpYhjIwnLx+LeiNVXxNS4qFkoFc6H4EcLxiqhE7vYA6J68OBw+qMo6cJ8+F9qAaYcXCIn0mR0oi/m+vxrQXY6BSuazxU6Z0DAjsi2NmQPFc6+FwPvL+/mg/Lx9HHMcYDtQGbXgZwEX+D7k18Dn8sg7P800Gwyu+pM6rzgPPAbHmgdmCbbQO9vDO584DzQK884MBmDprsdfA8v39wzgPzkwcc2BzY5tzQ6+AwP8FhIc+LA5sDmwOb80DjeMCBzZm6cUy9kCUNb3s10qsDmwObA5vzQON4wIHNmbpxTO1STzVSz0IeRwc2BzYHNueBxvGAA5szdeOYeiFLGt72aqRNBzYHNgc254HG8YADmzN145japZ5qpJ6FPI7/B8cEvdIMXFPNAAAAAElFTkSuQmCC;" vertex="1" parent="rgceRy845r_XPvcVsGcQ-30">
          <mxGeometry x="110" y="391.25" width="80" height="16" as="geometry" />
        </mxCell>
        <mxCell id="rgceRy845r_XPvcVsGcQ-40" value="" style="verticalLabelPosition=bottom;verticalAlign=top;html=1;strokeWidth=2;shape=mxgraph.arrows2.arrow;dy=0.6;dx=40;notch=0;rotation=-180;fillColor=#f8cecc;strokeColor=#b85450;" vertex="1" parent="rgceRy845r_XPvcVsGcQ-30">
          <mxGeometry x="-110" y="148.75" width="190" height="20" as="geometry" />
        </mxCell>
        <mxCell id="rgceRy845r_XPvcVsGcQ-41" value="" style="verticalLabelPosition=bottom;verticalAlign=top;html=1;strokeWidth=2;shape=mxgraph.arrows2.arrow;dy=0.6;dx=40;notch=0;rotation=0;fillColor=#f8cecc;strokeColor=#b85450;" vertex="1" parent="rgceRy845r_XPvcVsGcQ-30">
          <mxGeometry x="-90" y="421.25" width="190" height="20" as="geometry" />
        </mxCell>
        <mxCell id="rgceRy845r_XPvcVsGcQ-42" style="edgeStyle=orthogonalEdgeStyle;rounded=0;orthogonalLoop=1;jettySize=auto;html=1;exitX=0.5;exitY=0;exitDx=0;exitDy=0;entryX=0;entryY=0.5;entryDx=0;entryDy=0;entryPerimeter=0;strokeWidth=5;fillColor=#ffe6cc;strokeColor=#d79b00;" edge="1" parent="rgceRy845r_XPvcVsGcQ-30" source="rgceRy845r_XPvcVsGcQ-33" target="rgceRy845r_XPvcVsGcQ-31">
          <mxGeometry relative="1" as="geometry" />
        </mxCell>
        <mxCell id="rgceRy845r_XPvcVsGcQ-43" value="Listens on TCP 1514" style="text;html=1;align=center;verticalAlign=middle;whiteSpace=wrap;rounded=0;" vertex="1" parent="rgceRy845r_XPvcVsGcQ-30">
          <mxGeometry x="490" y="361.25" width="60" height="30" as="geometry" />
        </mxCell>
        <mxCell id="rgceRy845r_XPvcVsGcQ-44" value="Listens on UDP 6678" style="text;html=1;align=center;verticalAlign=middle;whiteSpace=wrap;rounded=0;" vertex="1" parent="rgceRy845r_XPvcVsGcQ-30">
          <mxGeometry x="153.53" y="168.75" width="60" height="30" as="geometry" />
        </mxCell>
        <mxCell id="rgceRy845r_XPvcVsGcQ-45" value="The nxLog service is configured to run and listen on TCP for inbound SYSLOG connections from Skyhigh Connector. All loglines received are parsed with SYSLOG, LEEF and key-value parsers and turned into a json structure. This is then converted to s string representation and set to the Rapid7 Connector&#39;s Event Source" style="text;html=1;align=center;verticalAlign=middle;whiteSpace=wrap;rounded=0;" vertex="1" parent="rgceRy845r_XPvcVsGcQ-30">
          <mxGeometry x="180" y="261.25" width="250" height="90" as="geometry" />
        </mxCell>
        <mxCell id="rgceRy845r_XPvcVsGcQ-46" value="The Rapid7 Connector is installed and configured tió listen on a UDP port for a &quot;Generic&quot; event source, with UTC timestamp and no SYSLOG parsing. It will receive the loglines and forward them to the Rapid7 cloud tenant for indexing and storage" style="text;html=1;align=center;verticalAlign=middle;whiteSpace=wrap;rounded=0;" vertex="1" parent="rgceRy845r_XPvcVsGcQ-30">
          <mxGeometry x="170" y="58.75" width="250" height="90" as="geometry" />
        </mxCell>
      </root>
    </mxGraphModel>
  </diagram>
</mxfile>
